<svg width="10" height="10" viewBox="0 0 10 10" fill="none" xmlns="http://www.w3.org/2000/svg">
<path fill-rule="evenodd" clip-rule="evenodd" d="M10 1.66667C10 0.746192 9.25381 0 8.33333 0H1.66667C0.746192 0 0 0.746192 0 1.66667V8.33333C0 9.25381 0.746192 10 1.66667 10H8.33333C9.25381 10 10 9.25381 10 8.33333V1.66667ZM3.92898 7.49363L3.80974 7.3647L2.25419 5.68283C2.02638 5.43653 2.02638 5.03719 2.25419 4.79089C2.48199 4.54458 2.85134 4.54458 3.07914 4.79089L4.17474 5.97545L6.87781 2.32006C7.07906 2.04806 7.44615 2.00396 7.69772 2.22156C7.94929 2.43916 7.99007 2.83606 7.78882 3.10805L4.67772 7.31272L4.56982 7.45855C4.41444 7.66855 4.10636 7.68541 3.92898 7.49363Z" fill="white"/>
</svg>
