<svg width="12" height="12" viewBox="0 0 12 12" fill="none" xmlns="http://www.w3.org/2000/svg">
<path fill-rule="evenodd" clip-rule="evenodd" d="M1.91375 1.91667H1.91667V2.5C1.91667 3.14433 2.439 3.66667 3.08333 3.66667C3.72767 3.66667 4.25 3.14433 4.25 2.5V1.91667H7.75V2.5C7.75 3.14433 8.27233 3.66667 8.91667 3.66667C9.561 3.66667 10.0833 3.14433 10.0833 2.5V1.91667H10.0862C10.7291 1.91667 11.25 2.43875 11.25 3.07983V10.0868C11.25 10.7291 10.7297 11.25 10.0862 11.25H1.91375C1.27092 11.25 0.75 10.7285 0.75 10.0868V3.07983C0.75 2.43758 1.27033 1.91667 1.91375 1.91667ZM7.75 8.91725H8.91667V7.75H7.75V8.91725ZM6.58333 8.91725H5.41667V7.75H6.58333V8.91725ZM3.08333 8.91725H4.25V7.75H3.08333V8.91725ZM4.25 6.58392H3.08333V5.41667H4.25V6.58392ZM5.41667 6.58392H6.58333V5.41667H5.41667V6.58392ZM8.91667 6.58392H7.75V5.41667H8.91667V6.58392Z" fill="#fff"/>
<path fill-rule="evenodd" clip-rule="evenodd" d="M8.33333 2.5V1.91667H9.5V2.5C9.5 2.822 9.23867 3.08333 8.91667 3.08333C8.59467 3.08333 8.33333 2.822 8.33333 2.5Z" fill="#fff"/>
<path fill-rule="evenodd" clip-rule="evenodd" d="M8.33333 1.33333V1.91667H9.5V1.33333C9.5 1.01133 9.23867 0.75 8.91667 0.75C8.59467 0.75 8.33333 1.01133 8.33333 1.33333Z" fill="#fff"/>
<path fill-rule="evenodd" clip-rule="evenodd" d="M2.5 1.33333V1.91667H3.66667V1.33333C3.66667 1.01133 3.40533 0.75 3.08333 0.75C2.76133 0.75 2.5 1.01133 2.5 1.33333Z" fill="#fff"/>
<path fill-rule="evenodd" clip-rule="evenodd" d="M2.5 2.5V1.91667H3.66667V2.5C3.66667 2.822 3.40533 3.08333 3.08333 3.08333C2.76133 3.08333 2.5 2.822 2.5 2.5Z" fill="#fff"/>
</svg>
