<svg width="24" height="24" viewBox="0 0 24 24" fill="none" xmlns="http://www.w3.org/2000/svg">
<path fill-rule="evenodd" clip-rule="evenodd" d="M18.126 3C18.4302 4.18194 19.2611 5.15246 20.3535 5.6465L14.2929 11.7071C14.1054 11.8946 14 12.149 14 12.4142V19C14 19.824 13.0592 20.2944 12.4 19.8L10.4 18.3C10.1482 18.1111 10 17.8148 10 17.5V12.4142C10 12.149 9.89464 11.8946 9.70711 11.7071L3.29289 5.29289C3.10536 5.10536 3 4.851 3 4.58579V4C3 3.44772 3.44772 3 4 3H18.126Z" fill="#A7ADB6"/>
<path d="M24 2C24 3.10457 23.1046 4 22 4C20.8954 4 20 3.10457 20 2C20 0.895431 20.8954 0 22 0C23.1046 0 24 0.895431 24 2Z" fill="#A7ADB6"/>
</svg>
