<svg width="24" height="24" viewBox="0 0 24 24" fill="none" xmlns="http://www.w3.org/2000/svg">
<path fill-rule="evenodd" clip-rule="evenodd" d="M5.82843 5L12 11L18.1716 5H5.82843ZM3 4C3 3.44772 3.44772 3 4 3H20C20.5523 3 21 3.44772 21 4V4.58579C21 4.851 20.8946 5.10536 20.7071 5.29289L14.2929 11.7071C14.1054 11.8946 14 12.149 14 12.4142V19C14 19.824 13.0592 20.2944 12.4 19.8L10.4 18.3C10.1482 18.1111 10 17.8148 10 17.5V12.4142C10 12.149 9.89464 11.8946 9.70711 11.7071L3.29289 5.29289C3.10536 5.10536 3 4.851 3 4.58579V4Z" fill="#A7ADB6"/>
</svg>
