<svg id="Слой_1" data-name="Слой 1" xmlns="http://www.w3.org/2000/svg" viewBox="0 0 92 78"><title>ic_service_landRelations</title><polygon points="92 78 69 72 46 78 23 72 0 78 0 6 23 0 46 6 69 0 92 6 92 78" style="fill:#0065ff"/><polygon points="46 78 23 72 23 0 46 6 46 78" style="fill:#1c9957"/><polygon points="0 78 23 72 23 0 0 6 0 78" style="fill:#137c42"/><polygon points="92 78 69 72 69 0 92 6 92 78" style="fill:#3e7bf0"/><polygon points="92 25 69 19 46 25 23 19 0 25 0 17 23 11 46 17 69 11 92 17 92 25" style="fill:#dfe1e5"/><polygon points="46 25 23 19 23 11 46 17 46 25" style="fill:#fff"/><polygon points="92 25 69 19 69 11 92 17 92 25" style="fill:#fff"/><polygon points="46 60 23 54 23 18 46 24 46 60" style="fill:#eceef1"/><polygon points="92 60 69 54 69 18 92 24 92 60" style="fill:#eceef1"/><polygon points="0 60 23 54 23 18 0 24 0 60" style="fill:#cbccc9"/><polygon points="46 60 69 54 69 18 46 24 46 60" style="fill:#cbccc9"/><polygon points="92 67 69 61 46 67 23 61 0 67 0 59 23 53 46 59 69 53 92 59 92 67" style="fill:#dfe1e5"/><polygon points="46 67 23 61 23 53 46 59 46 67" style="fill:#fff"/><polygon points="92 67 69 61 69 53 92 59 92 67" style="fill:#fff"/><polygon points="92 46 69 40 46 46 23 40 0 46 0 38 23 32 46 38 69 32 92 38 92 46" style="fill:#dfe1e5"/><polygon points="46 46 23 40 23 32 46 38 46 46" style="fill:#fff"/><polygon points="92 46 69 40 69 32 92 38 92 46" style="fill:#fff"/></svg>