<svg id="Слой_1" data-name="Слой 1" xmlns="http://www.w3.org/2000/svg" viewBox="0 0 74 105"><title>ic_service</title><rect y="13" width="74" height="92" rx="4" ry="4" style="fill:#3e7bf0"/><path d="M69.88,105H4a4,4,0,0,1-4-4V17a4,4,0,0,1,4-4s60.63,61.46,69.88,88C74.6,103.09,72.08,105,69.88,105Z" transform="translate(0 0)" style="fill:#0065ff"/><polygon points="47 98 7 98 7 20 67 20 67 78 47 98" style="fill:#fff"/><rect x="30" width="14" height="14" rx="7" ry="7" style="fill:#fcb123"/><path d="M48,16c2.5,2.5-23.5,1.5-22,0s4-6.54,4-9c0-3,14-3.5,14,0C44,9,46.41,14.41,48,16Z" transform="translate(0 0)" style="fill:#fcb123"/><path d="M37,2a5,5,0,1,1-5,5,5,5,0,0,1,5-5m0-1h0a6,6,0,0,0-6,6h0a6,6,0,0,0,6,6h0a6,6,0,0,0,6-6h0a6,6,0,0,0-6-6Z" transform="translate(0 0)" style="fill:#fde3b4"/><rect x="33" y="3" width="8" height="8" rx="4" ry="4" style="fill:#fff"/><path d="M62,24c0-.17,0-.33,0-.5A7.5,7.5,0,0,0,54.5,16h-35A7.5,7.5,0,0,0,12,23.5c0,.17,0,.33,0,.5Z" transform="translate(0 0)" style="fill:#fcb123"/><rect x="12" y="22" width="50" height="2" style="fill:#fde3b4"/><rect x="12" y="34" width="8" height="8" rx="4" ry="4" style="fill:#3e7bf0"/><rect x="12" y="50" width="8" height="8" rx="4" ry="4" style="fill:#3e7bf0"/><rect x="12" y="66" width="8" height="8" rx="4" ry="4" style="fill:#3e7bf0"/><rect x="26" y="37.5" width="30" height="1" rx="0.5" ry="0.5" style="fill:#3e7bf0"/><rect x="26" y="53.5" width="30" height="1" rx="0.5" ry="0.5" style="fill:#3e7bf0"/><rect x="26" y="69.5" width="30" height="1" rx="0.5" ry="0.5" style="fill:#3e7bf0"/><rect x="26" y="85.5" width="30" height="1" rx="0.5" ry="0.5" style="fill:#3e7bf0"/><polygon points="47 98 67 78 67 78 47 78 47 98" style="fill:#cfd3d9"/><rect x="12" y="82" width="8" height="8" rx="4" ry="4" style="fill:#3e7bf0"/></svg>