<svg id="Слой_1" data-name="Слой 1" xmlns="http://www.w3.org/2000/svg" viewBox="0 0 78 92"><title>ic_service_licensing</title><path d="M81,92H11a4,4,0,0,1-4-4V4a4,4,0,0,1,4-4H81a4,4,0,0,1,4,4V88A4,4,0,0,1,81,92Z" transform="translate(-7)" style="fill:#eceef1"/><path d="M74,15.5H18a.47.47,0,0,1-.5-.5h0a.47.47,0,0,1,.5-.5H74a.47.47,0,0,1,.5.5h0A.47.47,0,0,1,74,15.5Z" transform="translate(-7)" style="fill:#0065ff"/><path d="M74,19.5H18a.47.47,0,0,1-.5-.5h0a.47.47,0,0,1,.5-.5H74a.47.47,0,0,1,.5.5h0A.47.47,0,0,1,74,19.5Z" transform="translate(-7)" style="fill:#0065ff"/><path d="M61.8,23.5H30.2a.47.47,0,0,1-.5-.5h0a.47.47,0,0,1,.5-.5H61.8a.47.47,0,0,1,.5.5h0A.47.47,0,0,1,61.8,23.5Z" transform="translate(-7)" style="fill:#0065ff"/><polyline points="25 64 25 81 29 76 33 81 33 67.6 41.2 60.7 36.1 54.6 25 63.9" style="fill:#3e7bf0"/><polyline points="51 64 51 81 47 76 43 81 43 67.6 34.8 60.7 39.9 54.6 51 63.9" style="fill:#3e7bf0"/><path d="M46.9,54.6l-5.1,6.1,6.8,5.7.9.3c.1,0,.2.1.4.1a1.19,1.19,0,0,0,.9-.5L52,64.4,53.5,63l2.7-.7Z" transform="translate(-7)" style="fill:#0065ff"/><path d="M43.1,54.6l-9.2,7.8,2.7.7,1.5,1.4,1.2,1.9a1,1,0,0,0,1.2.4l.9-.3,6.8-5.7Z" transform="translate(-7)" style="fill:#0065ff"/><path d="M34.3,61h0c.2.1.3.2.4.2h0l2.9.8,1.5,1.4,1.2,1.9a1,1,0,0,0,1.2.4L45,64.4l3.5,1.3c.1,0,.2.1.4.1a1.19,1.19,0,0,0,.9-.5L51,63.4,52.5,62l2.9-.8a.76.76,0,0,0,.4-.2h0l.2-2.7-.1-1.2L57,55l1.1-1.4a1.05,1.05,0,0,0,0-1.3l-2.3-2.9.2-3.7a1,1,0,0,0-.8-1l-3.6-1-2-3.1a1,1,0,0,0-1.2-.4L45,41.6l-3.5-1.3a.93.93,0,0,0-1.2.4l-2,3.1-3.6,1a1.05,1.05,0,0,0-.8,1l.2,3.7-2.3,2.9a1.05,1.05,0,0,0,0,1.3l1.1,1.4L34,57.2v1.2" transform="translate(-7)" style="fill:#3e7bf0"/></svg>