<svg id="Слой_1" data-name="Слой 1" xmlns="http://www.w3.org/2000/svg" viewBox="0 0 92 92"><title>ic_service_production</title><polygon points="92 92 68 92 73 0 87 0 92 92" style="fill:#3e7bf0"/><polygon points="73 0 68 92 80 92 80 0 73 0" style="fill:#0065ff"/><polygon points="24 42 0 52 0 92 24 92 24 42" style="fill:#f3f5f7"/><polygon points="48 42 24 52 24 92 48 92 48 42" style="fill:#e8ebef"/><polygon points="72 42 48 52 48 92 72 92 72 42" style="fill:#dfe1e5"/><polygon points="24 42 0 52 0 50 24 40 24 42" style="fill:#e8ebef"/><polygon points="48 42 24 52 24 50 48 40 48 42" style="fill:#dfe1e5"/><polygon points="72 42 48 52 48 50 72 40 72 42" style="fill:#cfd3d9"/><polygon points="24 40 0 50 0 48 24 38 24 40" style="fill:#ff5230"/><polygon points="48 40 24 50 24 48 48 38 48 40" style="fill:#e54b2c"/><polygon points="72 40 48 50 48 48 72 38 72 40" style="fill:#c43720"/><rect x="4" y="60" width="6" height="24" style="fill:#fff"/><rect x="14" y="60" width="6" height="24" style="fill:#fff"/><rect x="28" y="60" width="6" height="24" style="fill:#fff"/><rect x="38" y="60" width="6" height="24" style="fill:#fff"/><rect x="52" y="60" width="6" height="24" style="fill:#fff"/><rect x="62" y="60" width="6" height="24" style="fill:#fff"/></svg>