<svg id="Слой_1" data-name="Слой 1" xmlns="http://www.w3.org/2000/svg" viewBox="0 0 92 92"><title>ic_service_construction</title><path d="M82,36H10a4,4,0,0,1-4-4V16a4,4,0,0,1,4-4H82a4,4,0,0,1,4,4V32A4,4,0,0,1,82,36Z" style="fill:#ff5230"/><path d="M6,31v1a4,4,0,0,0,4,4H82a4,4,0,0,0,4-4V31Z" style="fill:#e54b2c"/><polygon points="26 36 16 36 0 92 10 92 26 36" style="fill:#dfe1e5"/><polygon points="76 36 66 36 82 92 92 92 76 36" style="fill:#dfe1e5"/><polygon points="76 36 66 36 67.1 40 77.1 40 76 36" style="fill:#cfd3d9"/><polygon points="14.9 40 24.9 40 26 36 16 36 14.9 40" style="fill:#cfd3d9"/><path d="M84,69H8c-1.1,0,1-.9,1-2l1-6a2,2,0,0,1,2-2H80a2,2,0,0,1,2,2l2,6C84,68.1,85.1,69,84,69Z" style="fill:#dfe1e5"/><path d="M22,12h0a6,6,0,0,1-6-6h0a6,6,0,0,1,6-6h0a6,6,0,0,1,6,6h0A6,6,0,0,1,22,12Z" style="fill:#e64b2c"/><path d="M70,12h0a6,6,0,0,1-6-6h0a6,6,0,0,1,6-6h0a6,6,0,0,1,6,6h0A6,6,0,0,1,70,12Z" style="fill:#e64b2c"/><polygon points="47 36 31 36 45 12 61 12 47 36" style="fill:#f3f5f7"/><path d="M15,12,6,27.4V32a4,4,0,0,0,4,4h7L31,12Z" style="fill:#f3f5f7"/><path d="M86,16a4,4,0,0,0-4-4H75L61,36H77l9-15.4Z" style="fill:#f3f5f7"/><path d="M6,31v1a4,4,0,0,0,4,4h7l2.9-5Z" style="fill:#e8ebef"/><polygon points="33.9 31 31 36 47 36 49.9 31 33.9 31" style="fill:#e8ebef"/><polygon points="63.9 31 61 36 77 36 79.9 31 63.9 31" style="fill:#e8ebef"/></svg>