<svg id="Слой_1" data-name="Слой 1" xmlns="http://www.w3.org/2000/svg" viewBox="0 0 100 100"><title>ic_apply_100px</title><path d="M96,100H4V50S34.4,8,50,8,96,50,96,50Z" style="fill:#3fbc87"/><rect x="17" y="14" width="66" height="86" style="fill:#eceef1"/><path d="M4,100H96S66.7,86.5,56,80C42.6,71.9,4,50,4,50Z" style="fill:#57d9a3"/><path d="M96,100H4S33.3,86.5,44,80c13.4-8.1,52-30,52-30Z" style="fill:#8eebc1"/><path d="M72.5,47.5h-45a.46.46,0,0,1-.5-.4V47h0a.46.46,0,0,1,.4-.5H72.5a.46.46,0,0,1,.5.4V47h0a.47.47,0,0,1-.5.5Z" style="fill:#a7b0bb"/><path d="M72.5,51.5h-45a.46.46,0,0,1-.5-.4V51h0a.46.46,0,0,1,.4-.5H72.5a.46.46,0,0,1,.5.4V51h0a.47.47,0,0,1-.5.5Z" style="fill:#a7b0bb"/><path d="M62.6,55.5H37.4a.46.46,0,0,1-.5-.4V55h0a.46.46,0,0,1,.4-.5H62.7a.46.46,0,0,1,.5.4V55h0A.63.63,0,0,1,62.6,55.5Z" style="fill:#a7b0bb"/><path d="M72.5,35.5h-45a.46.46,0,0,1-.5-.4V35h0a.46.46,0,0,1,.4-.5H72.5a.46.46,0,0,1,.5.4V35h0a.47.47,0,0,1-.5.5Z" style="fill:#a7b0bb"/><path d="M72.5,39.5h-45a.46.46,0,0,1-.5-.4V39h0a.46.46,0,0,1,.4-.5H72.5a.46.46,0,0,1,.5.4V39h0a.47.47,0,0,1-.5.5Z" style="fill:#a7b0bb"/><path d="M62.6,43.5H37.4a.46.46,0,0,1-.5-.4V43h0a.46.46,0,0,1,.4-.5H62.7a.46.46,0,0,1,.5.4V43h0A.63.63,0,0,1,62.6,43.5Z" style="fill:#a7b0bb"/><path d="M65.8,23.5H34.5a.46.46,0,0,1-.5-.4V23h0a.46.46,0,0,1,.4-.5H65.8a.46.46,0,0,1,.5.4V23h0A.47.47,0,0,1,65.8,23.5Z" style="fill:#a7b0bb"/><path d="M65.8,27.5H34.5a.46.46,0,0,1-.5-.4V27h0a.46.46,0,0,1,.4-.5H65.8a.46.46,0,0,1,.5.4V27h0A.47.47,0,0,1,65.8,27.5Z" style="fill:#a7b0bb"/><path d="M58.8,31.5H41.4a.46.46,0,0,1-.5-.4V31h0a.46.46,0,0,1,.4-.5H58.8a.46.46,0,0,1,.5.4V31h0a.47.47,0,0,1-.5.5Z" style="fill:#a7b0bb"/><g id="Bounding_Boxes" data-name="Bounding Boxes"><path d="M0,0H100V100H0Z" style="fill:none"/></g></svg>