<svg id="Слой_1" data-name="Слой 1" xmlns="http://www.w3.org/2000/svg" viewBox="0 0 94 94"><title>ic_attachments_94px</title><rect x="7.8" y="14" width="64.3" height="76.5" style="fill:#eceef1"/><path d="M3.5,94h73A3.54,3.54,0,0,0,80,90.5H0A3.54,3.54,0,0,0,3.5,94Z" style="fill:#0065ff"/><path d="M64.3,23.1H15.7a.43.43,0,0,1-.4-.4h0a.43.43,0,0,1,.4-.4H64.4a.43.43,0,0,1,.4.4h0A.46.46,0,0,1,64.3,23.1Z" style="fill:#b8bbbf"/><path d="M64.3,26.6H15.7a.43.43,0,0,1-.4-.4h0a.43.43,0,0,1,.4-.4H64.4a.43.43,0,0,1,.4.4h0A.46.46,0,0,1,64.3,26.6Z" style="fill:#b8bbbf"/><path d="M43.1,30.1H15.7a.43.43,0,0,1-.4-.4h0a.43.43,0,0,1,.4-.4H43.2a.43.43,0,0,1,.4.4h0A.66.66,0,0,1,43.1,30.1Z" style="fill:#b8bbbf"/><path d="M64.3,39.7H15.7a.43.43,0,0,1-.4-.4h0a.43.43,0,0,1,.4-.4H64.4a.43.43,0,0,1,.4.4h0A.46.46,0,0,1,64.3,39.7Z" style="fill:#b8bbbf"/><path d="M64.3,43.1H15.7a.43.43,0,0,1-.4-.4h0a.43.43,0,0,1,.4-.4H64.4a.43.43,0,0,1,.4.4h0A.46.46,0,0,1,64.3,43.1Z" style="fill:#b8bbbf"/><path d="M43.1,46.6H15.7a.43.43,0,0,1-.4-.4h0a.43.43,0,0,1,.4-.4H43.2a.43.43,0,0,1,.4.4h0A.66.66,0,0,1,43.1,46.6Z" style="fill:#b8bbbf"/><path d="M45.2,87H3.5A3.46,3.46,0,0,1,0,83.6V47a3.54,3.54,0,0,1,3.5-3.5H26.1A3.54,3.54,0,0,1,29.6,47L48.7,83.5A3.48,3.48,0,0,1,45.2,87Z" style="fill:#fcb123"/><path d="M76,94H4a4,4,0,0,1-4-4V54.5a4,4,0,0,1,4-4H76a4,4,0,0,1,4,4V90A4,4,0,0,1,76,94Z" style="fill:#fcb123"/><g id="Bounding_Boxes" data-name="Bounding Boxes"><path d="M0,0H94V94H0Z" style="fill:none"/></g></svg>