<?xml version="1.0" encoding="utf-8"?>
<!-- Generator: Adobe Illustrator 21.1.0, SVG Export Plug-In . SVG Version: 6.00 Build 0)  -->
<svg version="1.1" id="Слой_1" xmlns="http://www.w3.org/2000/svg" xmlns:xlink="http://www.w3.org/1999/xlink" x="0px" y="0px"
	 viewBox="0 0 24 24" style="enable-background:new 0 0 24 24;" xml:space="preserve">
<style type="text/css">
	.project-attach.st0{fill:#333333;}
	.project-attach.st1{fill:none;}
</style>
<path id="clip_2_" class="project-attach st0" d="M22,3.1c-2.6-2.6-6.9-2.6-9.5,0L1.5,13.9c-2,2-2,5.4,0,7.4s5.4,2,7.4,0l10.9-10.8
	c1.5-1.5,1.5-3.8,0-5.3c-1.5-1.5-3.8-1.5-5.3,0l-8.2,8.2c-0.3,0.3-0.3,0.8,0,1.1c0.3,0.3,0.8,0.3,1.1,0l8.2-8.2
	c0.9-0.9,2.3-0.9,3.2,0c0.9,0.9,0.9,2.3,0,3.2L7.9,20.3c-1.5,1.5-3.8,1.5-5.3,0c-1.5-1.5-1.5-3.8,0-5.3L13.4,4.3
	c2.1-2.1,5.4-2.1,7.4,0c2.1,2.1,2.1,5.4,0,7.4l-8.1,8.1c-0.3,0.3-0.3,0.8,0,1.1c0.3,0.3,0.8,0.3,1.1,0l8.2-8.2
	C24.7,10,24.7,5.7,22,3.1z"/>
<path class="project-attach st1" d="M0,0h24v24H0V0z"/>
</svg>
