<svg id="Слой_1" data-name="Слой 1" xmlns="http://www.w3.org/2000/svg" viewBox="0 0 94 94"><title>ic_contacts_94px</title><path d="M88,62H24a4,4,0,0,1-4-4V26a4,4,0,0,1,4-4H88a4,4,0,0,1,4,4V58A4,4,0,0,1,88,62Z" style="fill:#e9ebee"/><path d="M84.5,36.5H53a.47.47,0,0,1-.5-.5h0a.47.47,0,0,1,.5-.5H84.5a.47.47,0,0,1,.5.5h0A.47.47,0,0,1,84.5,36.5Z" style="fill:#a7b0bb"/><path d="M84.5,40.5H53a.47.47,0,0,1-.5-.5h0a.47.47,0,0,1,.5-.5H84.5a.47.47,0,0,1,.5.5h0A.47.47,0,0,1,84.5,40.5Z" style="fill:#a7b0bb"/><path d="M70.6,44.5H53a.47.47,0,0,1-.5-.5h0a.47.47,0,0,1,.5-.5H70.6a.47.47,0,0,1,.5.5h0A.54.54,0,0,1,70.6,44.5Z" style="fill:#a7b0bb"/><path d="M45.6,48.8c-.5-1.2-3-1.9-4.7-2.6s-1.4-1.2-1.5-1.7V44a5.67,5.67,0,0,0,1.2-1.8v-.1c.1-.2.1-.3.2-.5a1.11,1.11,0,0,0,.7-.9,1.22,1.22,0,0,0,.2-.9,1.49,1.49,0,0,0-.3-.8,2.17,2.17,0,0,0-.8-3.4s-.4-2.5-4.4-2.3c-2.9.4-3.3,2.5-3.3,2.6a2.62,2.62,0,0,0-.5,3.3.85.85,0,0,0-.2.6,1.69,1.69,0,0,0,.2.9,1.11,1.11,0,0,0,.7.9.76.76,0,0,0,.2.5h0A6.15,6.15,0,0,0,34.5,44v.4c-.1.6.1,1-1.5,1.7s-4.2,1.5-4.7,2.6a3.46,3.46,0,0,0-.3,2H46A2.87,2.87,0,0,0,45.6,48.8Z" style="fill:#3fbc87"/><path d="M70,92H6a4,4,0,0,1-4-4V56a4,4,0,0,1,4-4H70a4,4,0,0,1,4,4V88A4,4,0,0,1,70,92Z" style="fill:#cacfd7"/><path d="M68,94H4a4,4,0,0,1-4-4V58a4,4,0,0,1,4-4H68a4,4,0,0,1,4,4V90A4,4,0,0,1,68,94Z" style="fill:#f3f5f7"/><path d="M64.5,68.5H33a.47.47,0,0,1-.5-.5h0a.47.47,0,0,1,.5-.5H64.5a.47.47,0,0,1,.5.5h0A.47.47,0,0,1,64.5,68.5Z" style="fill:#a7b0bb"/><path d="M64.5,72.5H33a.47.47,0,0,1-.5-.5h0a.47.47,0,0,1,.5-.5H64.5a.47.47,0,0,1,.5.5h0A.47.47,0,0,1,64.5,72.5Z" style="fill:#a7b0bb"/><path d="M50.6,76.5H33a.47.47,0,0,1-.5-.5h0a.47.47,0,0,1,.5-.5H50.6a.47.47,0,0,1,.5.5h0A.54.54,0,0,1,50.6,76.5Z" style="fill:#a7b0bb"/><path d="M25.6,80.8c-.5-1.2-3-1.9-4.7-2.6s-1.4-1.2-1.5-1.7V76a5.67,5.67,0,0,0,1.2-1.8v-.1c.1-.2.1-.3.2-.5a1.11,1.11,0,0,0,.7-.9,1.22,1.22,0,0,0,.2-.9,1.49,1.49,0,0,0-.3-.8,2.17,2.17,0,0,0-.8-3.4s-.4-2.5-4.4-2.3c-2.9.4-3.3,2.5-3.3,2.6a2.62,2.62,0,0,0-.5,3.3.85.85,0,0,0-.2.6,1.69,1.69,0,0,0,.2.9,1.11,1.11,0,0,0,.7.9.76.76,0,0,0,.2.5h0A6.15,6.15,0,0,0,14.5,76v.4c-.1.6.1,1-1.5,1.7s-4.2,1.5-4.7,2.6a3.46,3.46,0,0,0-.3,2H26A2.87,2.87,0,0,0,25.6,80.8Z" style="fill:#3fbc87"/><g id="Bounding_Boxes" data-name="Bounding Boxes"><path d="M0,0H94V94H0Z" style="fill:none"/></g></svg>