<svg width="24" height="24" viewBox="0 0 24 24" xmlns="http://www.w3.org/2000/svg">
<path fill-rule="evenodd" clip-rule="evenodd" d="M6.34338 6.34315C6.7339 5.95262 7.36707 5.95262 7.75759 6.34315L12.0002 10.5858L16.2429 6.34315C16.6334 5.95262 17.2666 5.95262 17.6571 6.34315C18.0476 6.73367 18.0476 7.36683 17.6571 7.75736L13.4144 12L17.6571 16.2426C18.0476 16.6332 18.0476 17.2663 17.6571 17.6569C17.2666 18.0474 16.6334 18.0474 16.2429 17.6569L12.0002 13.4142L7.75759 17.6569C7.36707 18.0474 6.7339 18.0474 6.34338 17.6569C5.95285 17.2663 5.95285 16.6332 6.34338 16.2426L10.586 12L6.34338 7.75736C5.95285 7.36684 5.95285 6.73367 6.34338 6.34315Z"/>
</svg>
