<svg id="Слой_1" data-name="Слой 1" xmlns="http://www.w3.org/2000/svg" viewBox="0 0 94 94"><title>ic_events_94px</title><path d="M74,94H4a4,4,0,0,1-4-4V28a4,4,0,0,1,4-4H74a4,4,0,0,1,4,4V90A4,4,0,0,1,74,94Z" style="fill:#e8ebef"/><path d="M37.2,68.1C23.4,83.3,0,89.6,0,89.6v-49H78S41.9,62.9,37.2,68.1Z" style="fill:#f3f5f7"/><rect x="0.2" y="24" width="77.7" height="17.5" style="fill:#d1d4db"/><path d="M13,36.3H11.9a3,3,0,0,1-3-3v-1a3,3,0,0,1,3-3H13a3,3,0,0,1,3,3v1A3.08,3.08,0,0,1,13,36.3Z" style="fill:#fff"/><path d="M66.1,36.3H65a3,3,0,0,1-3-3v-1a3,3,0,0,1,3-3h1.1a3,3,0,0,1,3,3v1A3,3,0,0,1,66.1,36.3Z" style="fill:#fff"/><rect x="53.2" y="50.3" width="7.1" height="7" style="fill:#3fbc87"/><rect x="44.3" y="50.3" width="7.1" height="7" style="fill:#3fbc87"/><rect x="35.5" y="50.3" width="7.1" height="7" style="fill:#3fbc87"/><rect x="26.6" y="50.3" width="7.1" height="7" style="fill:#3fbc87"/><rect x="17.7" y="50.3" width="7.1" height="7" style="fill:#3fbc87"/><rect x="8.9" y="50.3" width="7.1" height="7" style="fill:#3fbc87"/><rect x="62" y="50.3" width="7.1" height="7" style="fill:#3fbc87"/><rect x="53.3" y="59.2" width="7" height="6.9" style="fill:#fcb123"/><rect x="44.3" y="59" width="7.1" height="7" style="fill:#ffcc4d"/><rect x="35.7" y="59.2" width="7" height="6.9" style="fill:#fcb123"/><rect x="26.6" y="59" width="7.1" height="7" style="fill:#ffcc4d"/><rect x="18.2" y="59.2" width="7" height="6.9" style="fill:#fcb123"/><rect x="8.9" y="59" width="7.1" height="7" style="fill:#d0d4db"/><rect x="62" y="59" width="7.1" height="7" style="fill:#ffcc4d"/><rect x="53.2" y="67.8" width="7.1" height="7" style="fill:#d0d4db"/><rect x="44.3" y="67.8" width="7.1" height="7" style="fill:#ff8b00"/><rect x="35.5" y="67.8" width="7.1" height="7" style="fill:#fcb123"/><rect x="26.6" y="67.8" width="7.1" height="7" style="fill:#ff8b00"/><rect x="17.7" y="67.8" width="7.1" height="7" style="fill:#fcb123"/><rect x="9.5" y="67.8" width="7" height="6.9" style="fill:#fcb123"/><rect x="62" y="67.8" width="7.1" height="7" style="fill:#d0d4db"/><rect x="53.2" y="76.5" width="7.1" height="7" style="fill:#d0d4db"/><rect x="44.3" y="76.5" width="7.1" height="7" style="fill:#d0d4db"/><rect x="35.5" y="76.5" width="7.1" height="7" style="fill:#d0d4db"/><rect x="26.6" y="76.5" width="7.1" height="7" style="fill:#d0d4db"/><rect x="17.7" y="76.5" width="7.1" height="7" style="fill:#d0d4db"/><rect x="8.9" y="76.5" width="7.1" height="7" style="fill:#d0d4db"/><rect x="62" y="76.5" width="7.1" height="7" style="fill:#d0d4db"/><g id="Bounding_Boxes" data-name="Bounding Boxes"><path d="M0,0H94V94H0Z" style="fill:none"/></g></svg>