<?xml version="1.0" encoding="utf-8"?>
<!-- Generator: Adobe Illustrator 21.1.0, SVG Export Plug-In . SVG Version: 6.00 Build 0)  -->
<svg version="1.1" id="Слой_1" xmlns="http://www.w3.org/2000/svg" xmlns:xlink="http://www.w3.org/1999/xlink" x="0px" y="0px"
	 viewBox="0 0 24 24" style="enable-background:new 0 0 24 24;" xml:space="preserve">
<style type="text/css">
	.action-wrap-1.st0{fill:none;}
</style>
<g id="Bounding_Boxes">
	<g id="ui_x5F_spec_x5F_header_copy_3">
	</g>
	<path class="action-wrap-1 st0" d="M0,0h24v24H0V0z"/>
</g>
<path d="M20.1,9.5l-1,1l0,0l0,0L9.6,20c-0.1,0.1-0.3,0.2-0.5,0.2L3.9,21H3.8c-0.2,0-0.4-0.1-0.5-0.2C3.1,20.6,3,20.4,3,20.1l0.7-5.2
	c0-0.2,0.1-0.3,0.2-0.5l9.5-9.5l0,0l0,0l1-1c1.2-1.2,3.1-1.2,4.3,0L20,5.2l0,0C21.3,6.4,21.3,8.4,20.1,9.5z M17.5,9.9l-1.2-1.2
	l-8.4,8.4l1.2,1.2L17.5,9.9z M15.2,7.7L14,6.5l-8.4,8.4l1.2,1.2L15.2,7.7z M4.7,19.3L7.5,19L5,16.5L4.7,19.3z M19,6.3L17.7,5
	c-0.6-0.6-1.5-0.6-2.1,0l-0.4,0.4l3.4,3.4L19,8.4C19.6,7.9,19.6,6.9,19,6.3z"/>
</svg>
