<svg id="Слой_1" data-name="Слой 1" xmlns="http://www.w3.org/2000/svg" viewBox="0 0 94.02 94"><title>ic_escalate_94px</title><path d="M12,94h0a2,2,0,0,1-2-2V66a2,2,0,0,1,2-2h0a2,2,0,0,1,2,2V92A2,2,0,0,1,12,94Z" transform="translate(0.02)" style="fill:#ff8676"/><path d="M23.5,71,13.3,60.5a1.75,1.75,0,0,0-2.5,0L.5,71a1.87,1.87,0,0,0,0,2.6,1.75,1.75,0,0,0,2.5,0l8.9-9.2,8.9,9.2a1.75,1.75,0,0,0,2.5,0A1.72,1.72,0,0,0,23.5,71Z" transform="translate(0.02)" style="fill:#ff8676"/><path d="M34,94h0a2,2,0,0,1-2-2V56a2,2,0,0,1,2-2h0a2,2,0,0,1,2,2V92A2,2,0,0,1,34,94Z" transform="translate(0.02)" style="fill:#ff6c61"/><path d="M45.5,61,35.3,50.5a1.75,1.75,0,0,0-2.5,0L22.5,61a1.87,1.87,0,0,0,0,2.6,1.75,1.75,0,0,0,2.5,0l8.9-9.2,8.9,9.2a1.75,1.75,0,0,0,2.5,0A1.72,1.72,0,0,0,45.5,61Z" transform="translate(0.02)" style="fill:#ff6c61"/><path d="M57,94h0a2,2,0,0,1-2-2V46a2,2,0,0,1,2-2h0a2,2,0,0,1,2,2V92A2,2,0,0,1,57,94Z" transform="translate(0.02)" style="fill:#ff5230"/><path d="M68.5,51,58.3,40.5a1.75,1.75,0,0,0-2.5,0L45.5,51a1.87,1.87,0,0,0,0,2.6,1.75,1.75,0,0,0,2.5,0l8.9-9.2,8.9,9.2a1.75,1.75,0,0,0,2.5,0A1.72,1.72,0,0,0,68.5,51Z" transform="translate(0.02)" style="fill:#ff5230"/><path d="M0,24H70V94H0Z" transform="translate(0.02)" style="fill:none"/><g id="Bounding_Boxes" data-name="Bounding Boxes"><path d="M0,0H94V94H0Z" transform="translate(0.02)" style="fill:none"/></g></svg>