<?xml version="1.0" encoding="utf-8"?>
<!-- Generator: Adobe Illustrator 21.1.0, SVG Export Plug-In . SVG Version: 6.00 Build 0)  -->
<svg version="1.1" id="Слой_1" xmlns="http://www.w3.org/2000/svg" xmlns:xlink="http://www.w3.org/1999/xlink" x="0px" y="0px"
	 viewBox="0 0 24 24" style="enable-background:new 0 0 24 24;" xml:space="preserve">
<style type="text/css">
	.ic-filter-project-all.st0{fill:none;}
	.ic-filter-project-all.st1{fill:#FFFFFF;}
</style>
<path class="ic-filter-project-all st0" d="M0,0h24v24H0V0z"/>
<g>
	<path class="ic-filter-project-all st1" d="M12,3c5.6,0,7.5,1.5,7.9,2.5c-1,1-3.7,3.2-6.1,4.9L13,11v1v5.9L11,19.2V12v-1l-0.8-0.6
		C7.8,8.7,5.1,6.5,4.1,5.5C4.6,4.6,6.4,3,12,3 M12,1C4.1,1,2,4,2,5.9c0,1,7,6.1,7,6.1v11l5.9-4v-7c0,0,7-5,7-6.1C22,4,20,1,12,1
		L12,1z"/>
</g>
</svg>
