<?xml version="1.0" encoding="utf-8"?>
<!-- Generator: Adobe Illustrator 21.1.0, SVG Export Plug-In . SVG Version: 6.00 Build 0)  -->
<svg version="1.1" id="Слой_1" xmlns="http://www.w3.org/2000/svg" xmlns:xlink="http://www.w3.org/1999/xlink" x="0px" y="0px"
	 viewBox="0 0 24 24" style="enable-background:new 0 0 24 24;" xml:space="preserve">
<style type="text/css">
	.st0{fill:none;}
	.st1{fill:#FFFFFF;}
</style>
<path class="st0" d="M0,0h24v24H0V0z"/>
<g>
	<path class="st1" d="M12,2C5.4,2,0,6,0,11c0,2.3,1.2,4.6,3.3,6.2l-1.8,3.5c-0.2,0.4-0.1,0.8,0.1,1C1.9,21.9,2.1,22,2.3,22
		c0.1,0,0.3,0,0.4-0.1l4.8-2.6C8.9,19.7,10.5,20,12,20c6.6,0,12-4,12-9S18.6,2,12,2z M12,18.2c-1.5,0-3-0.2-4.4-0.7
		c-0.2-0.1-0.4,0-0.7,0.1L4.3,19l0.9-1.7c0.2-0.4,0.1-0.9-0.3-1.2C2.8,14.8,1.7,13,1.7,11C1.7,7,6.3,3.8,12,3.8S22.3,7,22.3,11
		S17.7,18.2,12,18.2z"/>
	<ellipse class="st1" cx="12" cy="11" rx="1.7" ry="1.8"/>
	<ellipse class="st1" cx="16.3" cy="11" rx="1.7" ry="1.8"/>
	<ellipse class="st1" cx="7.7" cy="11" rx="1.7" ry="1.8"/>
</g>
</svg>
