<?xml version="1.0" encoding="utf-8"?>
<!-- Generator: Adobe Illustrator 21.1.0, SVG Export Plug-In . SVG Version: 6.00 Build 0)  -->
<svg version="1.1" id="Слой_1" xmlns="http://www.w3.org/2000/svg" xmlns:xlink="http://www.w3.org/1999/xlink" x="0px" y="0px"
	 viewBox="0 0 24 24" style="enable-background:new 0 0 24 24;" xml:space="preserve">
<style type="text/css">
	.ic-filter-project-support.st0{fill:none;}
	.ic-filter-project-support.st1{fill:#FFFFFF;}
</style>
<path class="ic-filter-project-support st0" d="M0,0h24v24H0V0z"/>
<path class="ic-filter-project-support st1" d="M21.2,10.6V9.2C21.2,4.1,17.1,0,12,0S2.8,4.1,2.8,9.2c0,0,0,0,0,0v1.4c-1.2,0.5-1.9,1.6-1.9,2.9v2.4
	c0,1.7,1.4,3.1,3.1,3.1h0.4c1,0,1.8-0.8,1.8-1.8v-5c0-1-0.8-1.8-1.8-1.8H4.4V9.2C4.4,5,7.8,1.6,12,1.6s7.6,3.4,7.6,7.6v1.1h-0.1
	c-1,0-1.8,0.8-1.8,1.8v5c0,0.9,0.6,1.6,1.5,1.8c-0.3,1.4-1.6,2.5-3.1,2.5c-0.1-0.1-0.1-0.2-0.2-0.2c-0.3-0.3-0.7-0.5-1.1-0.5l-1.6,0
	c-0.9,0-1.6,0.7-1.6,1.6c0,0.9,0.7,1.6,1.6,1.6l1.6,0h0c0.7,0,1.2-0.4,1.5-1c2.3-0.2,4.1-1.9,4.5-4.2c1.3-0.4,2.3-1.6,2.3-3v-2.4
	C23.1,12.2,22.3,11.1,21.2,10.6z M14.8,23.4L14.8,23.4L14.8,23.4z"/>
</svg>
