<?xml version="1.0" encoding="utf-8"?>
<!-- Generator: Adobe Illustrator 21.1.0, SVG Export Plug-In . SVG Version: 6.00 Build 0)  -->
<svg version="1.1" id="Слой_1" xmlns="http://www.w3.org/2000/svg" xmlns:xlink="http://www.w3.org/1999/xlink" x="0px" y="0px"
	 viewBox="0 0 24 24" style="enable-background:new 0 0 24 24;" xml:space="preserve">
<style type="text/css">
	.st0{fill:none;}
	.st1{fill:#FFFFFF;}
</style>
<path class="st0" d="M0,0h24v24H0V0z"/>
<g>
	<path class="st1" d="M21.4,4.8c-0.1-0.4-0.4-0.7-0.8-0.7l-0.2,0c-4.9,0-7.7-3.2-7.7-3.3c-0.2-0.2-0.4-0.3-0.7-0.3
		c-0.3,0-0.5,0.1-0.7,0.3c0,0-2.8,3.3-7.7,3.3l-0.2,0C3,4.1,2.6,4.4,2.6,4.8c0,0.3-1,6.6,1.3,12.1c1.3,3.2,4,5.4,7.8,6.6
		c0.1,0,0.2,0,0.2,0l0,0c0,0,0,0,0.1,0l0.2,0c3.8-1.1,6.5-3.4,7.8-6.6C22.4,11.4,21.5,5.1,21.4,4.8z M12,21.8
		c-3.2-1-5.4-2.9-6.6-5.5C3.7,12.2,4,7.4,4.1,5.7c4.1-0.2,6.8-2.2,7.9-3.3c1.1,1,3.8,3.1,7.9,3.3c0.2,1.8,0.4,6.5-1.3,10.5v0
		C17.4,18.9,15.2,20.8,12,21.8z"/>
	<path class="st1" d="M15.2,9.3l-4,4.1l-1.7-1.7c-0.3-0.3-0.9-0.3-1.2,0C8,12,8,12.5,8.3,12.8l2.3,2.3c0.2,0.2,0.4,0.2,0.6,0.2
		c0.2,0,0.4-0.1,0.6-0.2l4.6-4.7c0.3-0.3,0.3-0.9,0-1.2C16.1,9,15.5,9,15.2,9.3z"/>
</g>
</svg>
