<?xml version="1.0" encoding="utf-8"?>
<!-- Generator: Adobe Illustrator 21.1.0, SVG Export Plug-In . SVG Version: 6.00 Build 0)  -->
<svg version="1.1" id="Слой_1" xmlns="http://www.w3.org/2000/svg" xmlns:xlink="http://www.w3.org/1999/xlink" x="0px" y="0px"
	 viewBox="0 0 24 24" style="enable-background:new 0 0 24 24;" xml:space="preserve">
<style type="text/css">
	.ic-filter-project-attraction.st0{fill:none;}
	.ic-filter-project-attraction.st1{fill:#FFFFFF;}
</style>
<path class="ic-filter-project-attraction st0" d="M0,0h24v24H0V0z"/>
<path class="ic-filter-project-attraction st1" d="M18,1c-1.6,0-3,1.3-3,2.9c0,0,0,0,0,0.1v10.3c0,1.7-1.4,3-3.1,3s-3.1-1.3-3.1-3l0,0V3.9C8.9,2.3,7.6,1,6,1
	S3,2.3,3,3.9v10.3c0,4.9,4,8.8,9,8.8s9-3.9,9-8.8c0,0,0,0,0,0V3.9C21,2.3,19.7,1,18,1C18.1,1,18,1,18,1z M18,2.7
	c0.7,0,1.2,0.5,1.2,1.2c0,0,0,0,0,0v1.6h-2.5V3.9C16.8,3.3,17.3,2.7,18,2.7C18,2.7,18,2.7,18,2.7z M6,2.7c0.7,0,1.2,0.5,1.2,1.2
	c0,0,0,0,0,0v1.6H4.7V3.9C4.7,3.3,5.3,2.7,6,2.7C5.9,2.7,6,2.7,6,2.7L6,2.7z M12,21.3c-4,0-7.3-3.2-7.3-7.1v-7h2.4v7
	c0,2.6,2.2,4.7,4.8,4.7s4.8-2.1,4.8-4.7v-7h2.5v7C19.3,18.1,16,21.3,12,21.3L12,21.3z"/>
</svg>
