<?xml version="1.0" encoding="utf-8"?>
<!-- Generator: Adobe Illustrator 21.1.0, SVG Export Plug-In . SVG Version: 6.00 Build 0)  -->
<svg version="1.1" id="Слой_1" xmlns="http://www.w3.org/2000/svg" xmlns:xlink="http://www.w3.org/1999/xlink" x="0px" y="0px"
	 viewBox="0 0 24 24" style="enable-background:new 0 0 24 24;" xml:space="preserve">
<style type="text/css">
	.ic-filter-project-observation.st0{fill:none;}
	.ic-filter-project-observation.st1{fill:#FFFFFF;}
</style>
<path class="ic-filter-project-observation st0" d="M0,0h24v24H0V0z"/>
<g>
	<path class="ic-filter-project-observation st1" d="M11,9.3c0-2,1.7-3.7,3.7-3.7c0.4,0,0.8-0.3,0.8-0.8S15.2,4,14.7,4c-2.9,0-5.3,2.4-5.3,5.3
		c0,0.4,0.3,0.8,0.8,0.8S11,9.7,11,9.3z"/>
	<path class="ic-filter-project-observation st1" d="M5.7,22.2l5.5-5.5c4.1,2,9,0.2,11-3.9s0.2-9-3.9-11s-9-0.2-11,3.9c-1.1,2.2-1.1,4.9,0,7.1l-5.5,5.5
		c-1.1,1.1-1.1,2.8,0,3.9S4.6,23.3,5.7,22.2L5.7,22.2z M14.7,2.6c3.7,0,6.6,3,6.6,6.6s-3,6.6-6.6,6.6s-6.6-3-6.6-6.6
		C8.1,5.6,11.1,2.6,14.7,2.6L14.7,2.6z M2.9,21.1c-0.5-0.5-0.5-1.2,0-1.7l5.3-5.3c0.5,0.6,1,1.2,1.7,1.7l-5.3,5.3
		C4.1,21.5,3.4,21.5,2.9,21.1z"/>
</g>
</svg>
