<svg id="Слой_1" data-name="Слой 1" xmlns="http://www.w3.org/2000/svg" viewBox="0 0 94 94"><title>ic_marks_94px</title><path d="M42,89.3,49.8,94l-2.1-8.9,6.9-6-9.1-.8L42,70l-3.5,8.4-9.1.8,6.9,6L34.2,94Z" style="fill:#fcb123"/><polygon points="42 70 38.6 78 50.6 82.6 54.6 79.1 45.5 78.4 42 70" style="fill:#ffcc4d"/><path d="M12.6,89.3,20.4,94l-2.1-8.9,6.9-6-9.1-.8L12.6,70,9.1,78.4,0,79.1l6.9,6L4.8,94Z" style="fill:#fcb123"/><polygon points="4.8 94 12.6 89.3 20.4 94 19.5 90.1 6.9 85.2 4.8 94" style="fill:#ff8b00"/><path d="M84.3,79.1l-9.1-.8L71.7,70l-3.5,8.4-9.1.8,6.9,6L63.9,94l7.8-4.7L79.5,94l-2.1-8.9ZM71.7,86.9,67,89.8l1.3-5.4L64,80.7l5.5-.5,2.1-5.1,2.2,5.1,5.5.5-4.2,3.6,1.3,5.4Z" style="fill:#fcb123"/><polygon points="75.2 78.4 71.7 70 68.1 78.4 59.1 79.1 65.9 85.1 65.2 88.2 67.1 88.9 68.2 84.4 64 80.7 69.5 80.3 71.7 75.2 73.8 80.3 79.4 80.8 75.2 84.4 76.4 89.8 71.7 86.9 67.9 89.2 70.3 90.1 71.7 89.3 78 93.1 79.4 93.6 77.4 85.1 84.3 79.1 75.2 78.4" style="fill:#ffcc4d"/><g id="Bounding_Boxes" data-name="Bounding Boxes"><path d="M0,0H94V94H0Z" style="fill:none"/></g></svg>