<?xml version="1.0" encoding="utf-8"?>
<!-- Generator: Adobe Illustrator 21.1.0, SVG Export Plug-In . SVG Version: 6.00 Build 0)  -->
<svg version="1.1" id="Слой_1" xmlns="http://www.w3.org/2000/svg" xmlns:xlink="http://www.w3.org/1999/xlink" x="0px" y="0px"
	 viewBox="0 0 24 24" style="enable-background:new 0 0 24 24;" xml:space="preserve">
<style type="text/css">
	.project-resource-tools.st0{fill:none;}
	.project-resource-tools.st1{fill:#303E4F;}
</style>
<path class="project-resource-tools st0" d="M0,0h24v24H0V0z"/>
<g>
	<g>
		<g>
			<path class="project-resource-tools st1" d="M11.2,4c-0.2-0.2-0.4-0.3-0.7-0.3l0,0H1.7c-0.2,0-0.3,0.1-0.5,0.2C1.1,4,1.1,4.2,1.1,4.3v8.8l0,0
				c0,0.3,0.1,0.5,0.3,0.7l9.9,9.8c0.4,0.4,1,0.4,1.4,0l8.5-8.4c0.4-0.4,0.4-1,0-1.4L11.2,4z M12,21.6l-7.1-7l-1.4-1.4l-0.4-0.4l0-7
				l7.1,0l0.4,0.4L12,7.5l7.1,7L12,21.6z"/>
		</g>
		<g>
			<path class="project-resource-tools st1" d="M7.4,7.5c-0.6,0-1.3,0.2-1.8,0.7c-1,1-1,2.5,0,3.5c0.5,0.5,1.1,0.7,1.8,0.7s1.3-0.2,1.8-0.7c1-1,1-2.5,0-3.5
				C8.6,7.8,8,7.5,7.4,7.5z M8.1,10.7C7.9,10.9,7.6,11,7.4,11s-0.5-0.1-0.7-0.3c-0.4-0.4-0.4-1,0-1.4C6.8,9.1,7.1,9,7.4,9
				c0.3,0,0.5,0.1,0.7,0.3C8.5,9.7,8.5,10.3,8.1,10.7z"/>
		</g>
		<g>
			<path class="project-resource-tools st1" d="M22.7,10.1l-9.9-9.8c0,0,0,0,0,0C12.6,0.1,12.3,0,12,0H3.9c-0.5,0-1,0.4-1,1s0.5,1,1,1h7.7l9.6,9.6
				c0.4,0.4,1,0.4,1.4,0C23,11.2,23,10.5,22.7,10.1z"/>
		</g>
	</g>
</g>
</svg>
