<svg id="Слой_1" data-name="Слой 1" xmlns="http://www.w3.org/2000/svg" viewBox="0 0 94 94"><title>ic_problems_94px</title><path d="M76,94H0V52.7S25.1,18,38,18,76,52.7,76,52.7Z" style="fill:#ff5230"/><rect x="10.7" y="23" width="54.5" height="71" style="fill:#eceef1"/><path d="M0,94H76S51.8,82.8,43,77.5C31.9,70.8,0,52.7,0,52.7Z" style="fill:#ff6c61"/><path d="M76,94H0S24.2,82.8,33,77.5c11.1-6.7,43-24.8,43-24.8Z" style="fill:#ff8676"/><path d="M51,50.6H25a.43.43,0,0,1-.4-.4v-.1a.43.43,0,0,1,.4-.4H51a.43.43,0,0,1,.4.4v.1C51.4,50.5,51.3,50.6,51,50.6Z" style="fill:#b8bbbf"/><path d="M51,53.9H25a.43.43,0,0,1-.4-.4v-.1A.43.43,0,0,1,25,53H51a.43.43,0,0,1,.4.4v.1C51.4,53.8,51.3,53.9,51,53.9Z" style="fill:#b8bbbf"/><path d="M45.3,57.2H30.7a.43.43,0,0,1-.4-.4v-.1a.43.43,0,0,1,.4-.4H45.3a.43.43,0,0,1,.4.4v.1A.37.37,0,0,1,45.3,57.2Z" style="fill:#b8bbbf"/><path d="M28.9,44.4H47.1L38,28.7Zm2.9-1.6L38,32l6.2,10.7H31.8Z" style="fill:#ff5230"/><rect x="37.2" y="40.3" width="1.7" height="1.7" style="fill:#ff5230"/><rect x="37.2" y="35.3" width="1.7" height="3.3" style="fill:#ff5230"/><g id="Bounding_Boxes" data-name="Bounding Boxes"><path d="M0,0H94V94H0Z" style="fill:none"/></g></svg>