<?xml version="1.0" encoding="utf-8"?>
<!-- Generator: Adobe Illustrator 21.1.0, SVG Export Plug-In . SVG Version: 6.00 Build 0)  -->
<svg version="1.1" id="Слой_1" xmlns="http://www.w3.org/2000/svg" xmlns:xlink="http://www.w3.org/1999/xlink" x="0px" y="0px"
	 viewBox="0 0 24 24" style="enable-background:new 0 0 24 24;" xml:space="preserve">
<style type="text/css">
	.ic-project-readliness.st0{fill:none;}
	.ic-project-readliness.st1{fill:#303E4F;}
</style>
<path class="ic-project-readliness st0" d="M0,0h24v24H0V0z"/>
<g>
	<path class="ic-project-readliness st1" d="M4.2,19.8L4.2,19.8c-0.4-0.4-0.4-1,0-1.4L18.4,4.2c0.4-0.4,1-0.4,1.4,0l0,0c0.4,0.4,0.4,1,0,1.4L5.6,19.8
		C5.2,20.2,4.6,20.2,4.2,19.8z"/>
	<path class="ic-project-readliness st1" d="M7.4,5.9c0.8,0,1.5,0.7,1.5,1.5c0,0.8-0.7,1.5-1.5,1.5S5.9,8.3,5.9,7.4C5.9,6.6,6.6,5.9,7.4,5.9 M7.4,3.9
		c-1.9,0-3.5,1.6-3.5,3.5s1.6,3.5,3.5,3.5s3.5-1.6,3.5-3.5S9.4,3.9,7.4,3.9L7.4,3.9z"/>
	<path class="ic-project-readliness st1" d="M16.6,15.1c0.8,0,1.5,0.7,1.5,1.5c0,0.8-0.7,1.5-1.5,1.5c-0.8,0-1.5-0.7-1.5-1.5
		C15.1,15.7,15.7,15.1,16.6,15.1 M16.6,13.1c-1.9,0-3.5,1.6-3.5,3.5s1.6,3.5,3.5,3.5s3.5-1.6,3.5-3.5S18.5,13.1,16.6,13.1L16.6,13.1
		z"/>
</g>
</svg>
