<?xml version="1.0" encoding="utf-8"?>
<!-- Generator: Adobe Illustrator 21.1.0, SVG Export Plug-In . SVG Version: 6.00 Build 0)  -->
<svg version="1.1" id="Слой_1" xmlns="http://www.w3.org/2000/svg" xmlns:xlink="http://www.w3.org/1999/xlink" x="0px" y="0px"
	 viewBox="0 0 24 24" style="enable-background:new 0 0 24 24;" xml:space="preserve">
<style type="text/css">
	.project-complaints.st0{fill:none;}
	.project-complaints.st1{fill:#303E4F;}
</style>
<path class="project-complaints st0" d="M0,0h24v24H0V0z"/>
<g>
	<circle class="project-complaints st1" cx="12" cy="16.2" r="1.6"/>
	<path class="project-complaints st1" d="M12,6.2c-0.9,0-1.6,0.7-1.6,1.6c0,0,0,0.1,0,0.1c0,0,0,0.1,0,0.1l0.7,4.8c0.1,0.5,0.5,0.8,0.9,0.8
		c0.5,0,0.9-0.3,0.9-0.8l0.7-4.8c0,0,0-0.1,0-0.1c0,0,0-0.1,0-0.1C13.6,6.9,12.9,6.2,12,6.2z"/>
	<path class="project-complaints st1" d="M21.7,7.6l-5.3-5.3C16.2,2.1,16,2,15.8,2H8.2C8,2,7.8,2.1,7.6,2.3L2.3,7.6C2.1,7.8,2,8,2,8.2v7.5
		c0,0.3,0.1,0.5,0.3,0.7l5.3,5.3C7.8,21.9,8,22,8.2,22h7.5c0.2,0,0.5-0.1,0.7-0.3l5.3-5.3c0.2-0.2,0.3-0.4,0.3-0.7V8.2
		C22,8,21.9,7.8,21.7,7.6z M20.1,15.4l-4.8,4.8H8.6l-4.8-4.8V8.6l4.8-4.8h6.7l4.8,4.8V15.4z"/>
</g>
</svg>
