<?xml version="1.0" encoding="utf-8"?>
<!-- Generator: Adobe Illustrator 21.1.0, SVG Export Plug-In . SVG Version: 6.00 Build 0)  -->
<svg version="1.1" id="Слой_1" xmlns="http://www.w3.org/2000/svg" xmlns:xlink="http://www.w3.org/1999/xlink" x="0px" y="0px"
	 viewBox="0 0 24 24" style="enable-background:new 0 0 24 24;" xml:space="preserve">
<style type="text/css">
	.project-financing.st0{fill:none;}
	.project-financing.st1{fill:#303E4F;}
</style>
<path class="project-financing st0" d="M0,0h24v24H0V0z"/>
<path class="project-financing st1" d="M14,13c2.8,0,5-2.2,5-5s-2.2-5-5-5H9C8.4,3,8,3.4,8,4v7H6c-0.6,0-1,0.4-1,1s0.4,1,1,1h2v2H6c-0.6,0-1,0.4-1,1
	s0.4,1,1,1h2v3c0,0.6,0.4,1,1,1s1-0.4,1-1v-3h5c0.6,0,1-0.4,1-1s-0.4-1-1-1h-5v-2H14z M17,8c0,1.7-1.3,3-3,3h-4V5h4
	C15.7,5,17,6.3,17,8z"/>
</svg>
