<?xml version="1.0" encoding="utf-8"?>
<!-- Generator: Adobe Illustrator 21.1.0, SVG Export Plug-In . SVG Version: 6.00 Build 0)  -->
<svg version="1.1" id="Слой_1" xmlns="http://www.w3.org/2000/svg" xmlns:xlink="http://www.w3.org/1999/xlink" x="0px" y="0px"
	 viewBox="0 0 24 24" style="enable-background:new 0 0 24 24;" xml:space="preserve">
<style type="text/css">
	.ic-project-execution.st0{fill:none;}
	.ic-project-execution.st1{fill:#303E4F;}
</style>
<path class="ic-project-execution st0" d="M0,0h24v24H0V0z"/>
<g>
	<g>
		<path class="ic-project-execution st1" d="M6,15v7H4v-7H6 M6,13H4c-1.1,0-2,0.9-2,2v7c0,1.1,0.9,2,2,2h2c1.1,0,2-0.9,2-2v-7C8,13.9,7.1,13,6,13L6,13z"
			/>
	</g>
	<g>
		<path class="ic-project-execution st1" d="M13,18v4h-2v-4H13 M13,16h-2c-1.1,0-2,0.9-2,2v4c0,1.1,0.9,2,2,2h2c1.1,0,2-0.9,2-2v-4C15,16.9,14.1,16,13,16
			L13,16z"/>
	</g>
	<g>
		<path class="ic-project-execution st1" d="M20,12v10h-2V12H20 M20,10h-2c-1.1,0-2,0.9-2,2v10c0,1.1,0.9,2,2,2h2c1.1,0,2-0.9,2-2V12
			C22,10.9,21.1,10,20,10L20,10z"/>
	</g>
	<g>
		<path class="ic-project-execution st1" d="M17.4,0.7c-0.3,0-0.6,0.4-0.4,0.7L17.7,3C17.1,3.3,3.1,9.9,2.4,10.2L3.2,12C3.9,11.7,18,5.1,18.6,4.8l0.8,1.6
			c0.1,0.2,0.3,0.3,0.5,0.3c0.2,0,0.4-0.1,0.5-0.3l1.4-3.7c0.1-0.3,0-0.5-0.3-0.6l-3.7-1.3C17.5,0.7,17.5,0.7,17.4,0.7L17.4,0.7z"/>
	</g>
</g>
</svg>
