<svg id="Слой_1" data-name="Слой 1" xmlns="http://www.w3.org/2000/svg" viewBox="0 0 100 100"><title>ic_project_100px</title><path d="M10,28H70c0-5.5-5.5-10,0-10H10A10,10,0,0,0,0,28Z" style="fill:#cfd3d9"/><path d="M80,28A10,10,0,0,0,70,18H20V90h0a10,10,0,0,0,10,10H80Z" style="fill:#f3f5f7"/><path d="M10,18A10,10,0,0,1,20,28H70c0-5.5-5.5-10,0-10Z" style="fill:#f3f5f7"/><path d="M90,90H40a10,10,0,0,1-10,10H90a10,10,0,0,0,10-10Z" style="fill:#cfd3d9"/><path d="M70.5,72.5h-38a.46.46,0,0,1-.5-.4V72h0a.46.46,0,0,1,.4-.5H70.5a.46.46,0,0,1,.5.4V72h0a.47.47,0,0,1-.5.5Z" style="fill:#a7b0bb"/><path d="M70.5,76.5h-38a.46.46,0,0,1-.5-.4V76h0a.46.46,0,0,1,.4-.5H70.5a.46.46,0,0,1,.5.4V76h0a.47.47,0,0,1-.5.5Z" style="fill:#a7b0bb"/><path d="M53.8,80.5H32.5a.46.46,0,0,1-.5-.4V80h0a.46.46,0,0,1,.4-.5H53.8a.46.46,0,0,1,.5.4V80h0a.47.47,0,0,1-.5.5Z" style="fill:#a7b0bb"/><path d="M50,49V33A16,16,0,1,0,66,49Z" style="fill:#3fbc87"/><path d="M53,30V46H69A16,16,0,0,0,53,30Z" style="fill:#8eebc1"/><g id="Bounding_Boxes" data-name="Bounding Boxes"><path d="M0,0H100V100H0Z" style="fill:none"/></g></svg>