<?xml version="1.0" encoding="utf-8"?>
<!-- Generator: Adobe Illustrator 21.1.0, SVG Export Plug-In . SVG Version: 6.00 Build 0)  -->
<svg version="1.1" id="Слой_1" xmlns="http://www.w3.org/2000/svg" xmlns:xlink="http://www.w3.org/1999/xlink" x="0px" y="0px"
	 viewBox="0 0 24 24" style="enable-background:new 0 0 24 24;" xml:space="preserve">
<style type="text/css">
	.project-resource.st0{fill:none;}
	.project-resource.st1{fill:#303E4F;}
</style>
<path class="project-resource st0" d="M0,0h24v24H0V0z"/>
<path class="project-resource st1" d="M23.1,18.5l-6.5-6.5c0.3,0,0.6,0.1,0.8,0.1c3.1,0,5.6-2.5,5.6-5.6c0-0.8-0.2-1.6-0.5-2.4
	c-0.1-0.3-0.4-0.5-0.7-0.5c-0.3-0.1-0.6,0-0.8,0.3l-3.3,3.3l-0.9-0.9l3.3-3.3c0.2-0.2,0.3-0.5,0.3-0.8c-0.1-0.3-0.2-0.5-0.5-0.7
	c-0.8-0.4-1.6-0.5-2.4-0.5c-3.1,0-5.6,2.5-5.6,5.6c0,0.6,0.1,1.3,0.3,1.8l-1.3,1.1L7.2,5.7L8,4.9C8.2,4.6,8.4,4.3,8.3,4
	c0-0.3-0.2-0.6-0.5-0.8L3.9,0.9C3.5,0.7,3,0.7,2.6,1.1L1.1,2.6C0.7,3,0.7,3.5,0.9,3.9l2.4,3.9C3.4,8.1,3.7,8.3,4,8.3
	c0,0,0.1,0,0.1,0c0.3,0,0.5-0.1,0.7-0.3l0.9-0.9l3.7,3.7L2,17.4c-0.7,0.6-1.1,1.5-1.1,2.4c0,1.8,1.5,3.3,3.3,3.3
	c0.9,0,1.8-0.4,2.4-1.1l5.1-5.7l6.9,6.9c0.2,0.2,0.5,0.3,0.7,0.3s0.5-0.1,0.7-0.3l3.1-3.1C23.6,19.6,23.6,18.9,23.1,18.5z M5,4.9
	C5,5,5,5,5,4.9C5,5,5,5,5,4.9L4.3,5.6L3.1,3.5l0.4-0.4l2.1,1.3L5,4.9z M5.2,20.8c-0.3,0.3-0.6,0.5-1.1,0.5c-0.8,0-1.4-0.6-1.4-1.4
	c0-0.4,0.2-0.8,0.5-1.1l10.7-9.5c0.3-0.3,0.4-0.7,0.2-1.1c-0.3-0.5-0.4-1.1-0.4-1.7c0-2.1,1.7-3.8,3.8-3.8c0.1,0,0.2,0,0.3,0L15.5,5
	C15.2,5.3,15,5.7,15,6.2c0,0.5,0.2,0.9,0.5,1.2l1.1,1.1C17,8.8,17.4,9,17.9,9c0.4,0,0.9-0.2,1.2-0.5l2.3-2.3c0,0.1,0,0.2,0,0.3
	c0,2.1-1.7,3.8-3.8,3.8c-0.6,0-1.2-0.1-1.7-0.4c-0.4-0.2-0.8-0.1-1.1,0.2L5.2,20.8z M19.3,21l-6.2-6.2l1.6-1.8l6.3,6.3L19.3,21z"/>
</svg>
