<svg id="Слой_1" data-name="Слой 1" xmlns="http://www.w3.org/2000/svg" viewBox="0 0 94 94"><title>ic_projects_94px</title><rect x="8.94" y="27.42" width="46.36" height="60.48" transform="translate(-17.78 14.46) rotate(-20)" style="fill:#eceef1"/><polygon points="43.57 21.31 32.11 25.48 25.39 63.59 61.26 69.91 43.57 21.31" style="fill:#050505;opacity:0.11999999731779099;isolation:isolate"/><rect x="12.09" y="41.21" width="13.1" height="3.02" transform="translate(-13.48 8.95) rotate(-20)" style="fill:#5aa6f9"/><rect x="13.54" y="44.4" width="22.17" height="3.02" transform="translate(-14.21 11.19) rotate(-20)" style="fill:#4c9aff"/><rect x="17.39" y="56.1" width="9.07" height="3.02" transform="translate(-18.38 10.97) rotate(-20)" style="fill:#5aa6f9"/><rect x="18.73" y="58.6" width="22.17" height="3.02" transform="translate(-18.76 13.82) rotate(-20)" style="fill:#4c9aff"/><rect x="15.12" y="48.26" width="27.21" height="3.02" transform="translate(-15.29 12.83) rotate(-20)" style="fill:#0065ff"/><path d="M23.79,73.78l25.09-9.13a.35.35,0,0,1,.45.21h0a.35.35,0,0,1-.21.45L24,74.44a.35.35,0,0,1-.45-.21h0A.35.35,0,0,1,23.79,73.78Z" transform="translate(0)" style="fill:#a7b0bb"/><path d="M24.61,76.5l25.1-9.08a.35.35,0,0,1,.45.21h0a.35.35,0,0,1-.21.45l-25.1,9.08a.35.35,0,0,1-.45-.21h0A.35.35,0,0,1,24.61,76.5Z" transform="translate(0)" style="fill:#a7b0bb"/><path d="M25.72,79.06l14.06-5.12a.35.35,0,0,1,.45.21h0a.35.35,0,0,1-.21.45L26,79.72a.35.35,0,0,1-.45-.21h0A.35.35,0,0,1,25.72,79.06Z" transform="translate(0)" style="fill:#a7b0bb"/><rect x="27.26" y="10.63" width="60.48" height="46.36" transform="translate(14.21 84.56) rotate(-80)" style="fill:#eceef1"/><rect x="43.31" y="23.15" width="10.08" height="7.84" transform="translate(13.3 69.99) rotate(-80)" style="fill:#ffcc4d"/><rect x="50.85" y="21.94" width="16.13" height="7.84" transform="translate(23.22 79.39) rotate(-80)" style="fill:#fcb123"/><rect x="59.21" y="21.73" width="20.16" height="7.84" transform="translate(32 89.44) rotate(-80)" style="fill:#ff8b00"/><rect x="54.96" y="32.57" width="0.7" height="27.4" rx="0.35" ry="0.35" transform="matrix(0.17, -0.98, 0.98, 0.17, 0.13, 92.7)" style="fill:#a7b0bb"/><rect x="54.47" y="35.34" width="0.7" height="27.4" rx="0.35" ry="0.35" transform="translate(-3 94.52) rotate(-80)" style="fill:#a7b0bb"/><rect x="48.2" y="42.96" width="0.7" height="15.66" rx="0.35" ry="0.35" transform="translate(-9.89 89.78) rotate(-80)" style="fill:#a7b0bb"/><g id="Bounding_Boxes" data-name="Bounding Boxes"><path d="M0,0H94V94H0Z" transform="translate(0)" style="fill:none"/></g></svg>