<?xml version="1.0" encoding="utf-8"?>
<!-- Generator: Adobe Illustrator 21.1.0, SVG Export Plug-In . SVG Version: 6.00 Build 0)  -->
<svg version="1.1" id="Слой_1" xmlns="http://www.w3.org/2000/svg" xmlns:xlink="http://www.w3.org/1999/xlink" x="0px" y="0px"
	 viewBox="0 0 24 24" style="enable-background:new 0 0 24 24;" xml:space="preserve">
<path class="ic-project-land st0" fill="none" d="M0,0h24v24H0V0z"/>
<path class="ic-project-land st1" d="M19.1,3.1c-0.3,0-0.7,0.1-1,0.2l-3.4,1.8c0,0-0.1,0-0.2,0c-0.1,0-0.2,0-0.2,0l-3.5-1.8C10.3,3,9.7,3,9.5,3
	S8.6,3,8,3.3L4.6,5.1C3.7,5.6,3,6.7,3,7.7v11.2c0,1.2,0.8,2,1.9,2c0.3,0,0.7-0.1,1-0.2l3.4-1.8c0,0,0.1,0,0.2,0c0.1,0,0.2,0,0.2,0
	l3.5,1.8c0.6,0.3,1.2,0.3,1.4,0.3s0.8,0,1.4-0.3l3.5-1.8c0.9-0.5,1.6-1.6,1.6-2.6V5.1C21,3.9,20.2,3.1,19.1,3.1z M13.6,6.9v12
	l-3.1-1.6c0,0-0.1,0-0.1-0.1v-12l3.1,1.6C13.5,6.8,13.5,6.8,13.6,6.9z M19.1,5c0,0,0,0,0,0.1v11.2c0,0.3-0.3,0.8-0.6,0.9l-3.1,1.6
	v-12c0,0,0.1,0,0.1-0.1L19,5C19.1,5,19.1,5,19.1,5z M8.5,5.2v12c0,0-0.1,0-0.1,0.1L4.9,19c-0.1,0-0.1,0-0.1,0c0,0,0,0,0-0.1V7.8
	c0-0.3,0.3-0.8,0.6-0.9L8.5,5.2z"/>
</svg>
