<?xml version="1.0" encoding="utf-8"?>
<!-- Generator: Adobe Illustrator 21.1.0, SVG Export Plug-In . SVG Version: 6.00 Build 0)  -->
<svg version="1.1" id="Слой_1" xmlns="http://www.w3.org/2000/svg" xmlns:xlink="http://www.w3.org/1999/xlink" x="0px" y="0px"
	 viewBox="0 0 24 24" style="enable-background:new 0 0 24 24;" xml:space="preserve">
<style type="text/css">
	.ic-project-event.st0{fill:none;}
	.ic-project-event.st1{fill:#303E4F;}
</style>
<path class="ic-project-event st0" d="M0,0h24v24H0V0z"/>
<g>
	<path class="ic-project-event st1" d="M20.5,11.4c1.2-1.1,1.9-2.5,1.9-4.2c0-3.1-2.5-5.6-5.6-5.6c-2,0-3.7,1-4.7,2.6c-1-1.6-2.8-2.6-4.7-2.6
		c-3.1,0-5.6,2.5-5.6,5.6c0,1.6,0.7,3.1,1.9,4.2c-0.2,0.7-0.3,1.4-0.3,2.1c0,2.1,0.7,4,2,5.5l-1.7,1.7c-0.2,0.2-0.3,0.4-0.3,0.6
		c0,0.2,0.1,0.5,0.3,0.6c0.2,0.2,0.4,0.3,0.6,0.3c0.2,0,0.5-0.1,0.6-0.3l1.7-1.7c1.5,1.2,3.4,2,5.5,2c2.1,0,4-0.7,5.5-2l1.7,1.7
		c0.2,0.2,0.4,0.3,0.6,0.3s0.5-0.1,0.6-0.3c0.2-0.2,0.3-0.4,0.3-0.6c0-0.2-0.1-0.5-0.3-0.6l-1.7-1.7c1.2-1.5,2-3.4,2-5.5
		C20.8,12.8,20.7,12.1,20.5,11.4z M12,20.5c-3.8,0-7-3.1-7-7s3.1-7,7-7s7,3.1,7,7S15.8,20.5,12,20.5z M13.7,4.9
		c0.7-0.9,1.8-1.5,3-1.5c2.1,0,3.8,1.7,3.8,3.8c0,0.8-0.3,1.6-0.8,2.2C18.6,7.2,16.4,5.5,13.7,4.9z M4.2,9.5
		C3.7,8.9,3.5,8.1,3.5,7.3c0-2.1,1.7-3.8,3.8-3.8c1.2,0,2.3,0.6,3,1.5C7.6,5.5,5.4,7.2,4.2,9.5z"/>
	<path class="ic-project-event st1" d="M12.9,13.2v-2.8c0-0.5-0.4-0.9-0.9-0.9s-0.9,0.4-0.9,0.9v3.2c0,0.2,0.1,0.5,0.3,0.6l2.4,2.4
		c0.2,0.2,0.4,0.3,0.6,0.3s0.5-0.1,0.6-0.3c0.4-0.4,0.4-0.9,0-1.3L12.9,13.2z"/>
</g>
</svg>
