<?xml version="1.0" encoding="utf-8"?>
<!-- Generator: Adobe Illustrator 21.1.0, SVG Export Plug-In . SVG Version: 6.00 Build 0)  -->
<svg version="1.1" id="Слой_1" xmlns="http://www.w3.org/2000/svg" xmlns:xlink="http://www.w3.org/1999/xlink" x="0px" y="0px"
	 viewBox="0 0 24 24" style="enable-background:new 0 0 24 24;" xml:space="preserve">
<style type="text/css">
	.ic-project-stage.st0{fill:none;}
	.ic-project-stage.st1{fill:#303E4F;}
</style>
<path class="ic-project-stage st0" d="M0,0h24v24H0V0z"/>
<path class="ic-project-stage st1" d="M22.7,11.3l-5-5h0C17.5,6.1,17.3,6,17,6H2C1.5,6,1,6.5,1,7c0,0.5,0.4,0.8,0.4,0.8v0L5.6,12l-4.2,4.2l0,0
	c0,0-0.3,0.3-0.3,0.8c0,0.5,0.5,1,1,1h15c0.3,0,0.5-0.1,0.7-0.3h0l5-5C23.1,12.3,23.1,11.7,22.7,11.3z M16.6,16H16h-2.8H4.4l3.3-3.3
	c0.4-0.4,0.4-1,0-1.4L4.4,8h8.9H16h0.6l4,4L16.6,16z"/>
</svg>
