<svg id="Слой_1" data-name="Слой 1" xmlns="http://www.w3.org/2000/svg" viewBox="0 0 94 94"><title>ic_question_94px</title><path d="M81,40a6,6,0,0,0-6-6H27a6,6,0,0,0-6,6V76a6,6,0,0,0,6,6H69L81,94Z" style="fill:#57d799"/><path d="M66.8,53H35.3a.47.47,0,0,1-.5-.5v-1a.47.47,0,0,1,.5-.5H66.8a.47.47,0,0,1,.5.5v1A.54.54,0,0,1,66.8,53Z" style="fill:#fff"/><path d="M66.8,61H35.3a.47.47,0,0,1-.5-.5v-1a.47.47,0,0,1,.5-.5H66.8a.47.47,0,0,1,.5.5v1A.54.54,0,0,1,66.8,61Z" style="fill:#fff"/><path d="M52.8,68H35.2a.47.47,0,0,1-.5-.5v-1a.47.47,0,0,1,.5-.5H52.8a.47.47,0,0,1,.5.5v1A.47.47,0,0,1,52.8,68Z" style="fill:#fff"/><path d="M27,34a6,6,0,0,0-6,6V66H59a6,6,0,0,0,6-6V34Z" style="opacity:0.11999999731779099;isolation:isolate"/><path d="M0,20a6,6,0,0,1,6-6H54a6,6,0,0,1,6,6V56a6,6,0,0,1-6,6H12L0,74Z" style="fill:#f3f5f7"/><path d="M19.4,32.9a8.89,8.89,0,0,1,2.9-6.7c1.9-1.7,4.5-2.5,7.8-2.5a11.72,11.72,0,0,1,7.6,2.4,7.68,7.68,0,0,1,2.9,6.2,8,8,0,0,1-1.2,4.3,10.91,10.91,0,0,1-3.5,3.2,10.33,10.33,0,0,0-3,2.3,4.46,4.46,0,0,0-.8,2.6v1.2H26.3V44.6a7.75,7.75,0,0,1,.7-4.2,8.5,8.5,0,0,1,3.2-3,11.1,11.1,0,0,0,2.9-2.3,4.24,4.24,0,0,0,.8-2.6,3.22,3.22,0,0,0-1.2-2.6,4.36,4.36,0,0,0-3-1A4.5,4.5,0,0,0,26.6,30a4.2,4.2,0,0,0-1.3,3H19.4ZM31.8,55.3a3.54,3.54,0,0,1-2.6,1,3.5,3.5,0,1,1,0-7,3.7,3.7,0,0,1,2.6,1,3.39,3.39,0,0,1,0,5Z" style="fill:#d0d4db"/><g id="Bounding_Boxes" data-name="Bounding Boxes"><path d="M0,0H94V94H0Z" style="fill:none"/></g></svg>