<svg id="Слой_1" data-name="Слой 1" xmlns="http://www.w3.org/2000/svg" viewBox="0 0 100 100"><title>ic_result_100px</title><path d="M92,100H8a4,4,0,0,1-4-4V34a4,4,0,0,1,4-4H92a4,4,0,0,1,4,4V96A4,4,0,0,1,92,100Z" style="fill:#dfe1e5"/><rect x="4" y="30" width="92" height="10" style="fill:#d1d4db"/><path d="M82,91H18a4,4,0,0,1-4-4V55a4,4,0,0,1,4-4H82a4,4,0,0,1,4,4V87A4,4,0,0,1,82,91Z" style="fill:#cacfd7"/><path d="M82,88H18a4,4,0,0,1-4-4V52a4,4,0,0,1,4-4H82a4,4,0,0,1,4,4V84A4,4,0,0,1,82,88Z" style="fill:#f3f5f7"/><path d="M11,37h0a2,2,0,0,1-2-2H9a2,2,0,0,1,2-2h0a2,2,0,0,1,2,2h0A2,2,0,0,1,11,37Z" style="fill:#344563"/><path d="M17,37h0a2,2,0,0,1-2-2h0a2,2,0,0,1,2-2h0a2,2,0,0,1,2,2h0A2,2,0,0,1,17,37Z" style="fill:#a9b1bc"/><path d="M23,37h0a2,2,0,0,1-2-2h0a2,2,0,0,1,2-2h0a2,2,0,0,1,2,2h0A2,2,0,0,1,23,37Z" style="fill:#2684ff"/><path d="M76.5,62.5H45a.46.46,0,0,1-.5-.4V62h0a.46.46,0,0,1,.4-.5H76.5a.46.46,0,0,1,.5.4V62h0a.47.47,0,0,1-.5.5Z" style="fill:#a7b0bb"/><path d="M76.5,66.5H45a.46.46,0,0,1-.5-.4V66h0a.46.46,0,0,1,.4-.5H76.5a.46.46,0,0,1,.5.4V66h0a.47.47,0,0,1-.5.5Z" style="fill:#a7b0bb"/><path d="M62.6,70.5H45a.46.46,0,0,1-.5-.4V70h0a.46.46,0,0,1,.4-.5H62.6a.46.46,0,0,1,.5.4V70h0A.47.47,0,0,1,62.6,70.5Z" style="fill:#a7b0bb"/><path d="M30,78h0A10,10,0,0,1,20,68h0A10,10,0,0,1,30,58h0A10,10,0,0,1,40,68h0A10,10,0,0,1,30,78Z" style="fill:#41c08a"/><path d="M27.5,71.1l-3.3-3.3L23,68.9l4.5,4.5L37,63.9l-1.1-1.1Z" style="fill:#fff"/><g id="Bounding_Boxes" data-name="Bounding Boxes"><path d="M0,0H100V100H0Z" style="fill:none"/></g></svg>