<?xml version="1.0" encoding="utf-8"?>
<!-- Generator: Adobe Illustrator 21.1.0, SVG Export Plug-In . SVG Version: 6.00 Build 0)  -->
<svg version="1.1" id="Слой_1" xmlns="http://www.w3.org/2000/svg" xmlns:xlink="http://www.w3.org/1999/xlink" x="0px" y="0px"
	 viewBox="0 0 24 24" style="enable-background:new 0 0 24 24;" xml:space="preserve">
<path d="M22,9.5C21.7,4.2,17.4,0,12,0C6.6,0,2.3,4.2,2,9.5c-1.2,0.7-2,2-2,3.5c0,2.2,1.8,4,4,4v3c0,1.7,1.3,3,3,3h3.6
	c0.2,0.6,0.8,1,1.4,1c0.8,0,1.5-0.7,1.5-1.5S12.8,21,12,21c-0.7,0-1.2,0.4-1.4,1H7c-1.1,0-2-0.9-2-2v-3.1V16v0v-0.2v-5.6V10
	c0-3.9,3.1-7,7-7s7,3.1,7,7v0.2v5.6V16v0.9c0.3,0.1,0.7,0.1,1,0.1c2.2,0,4-1.8,4-4C24,11.5,23.2,10.2,22,9.5z M4,16L4,16
	c-1.7,0-3-1.3-3-3s1.3-3,3-3V16z M12,2C7.9,2,4.6,5.1,4.1,9C4,9,4,9,4,9C3.7,9,3.4,9.1,3,9.1C3.5,4.6,7.3,1,12,1
	c4.7,0,8.5,3.6,9,8.1C20.6,9.1,20.3,9,20,9c0,0,0,0-0.1,0C19.4,5.1,16.1,2,12,2z M20,16v-6c1.7,0,3,1.3,3,3S21.7,16,20,16z"/>
</svg>
