<svg id="Слой_1" data-name="Слой 1" xmlns="http://www.w3.org/2000/svg" viewBox="0 0 94 94.2"><title>ic_services_94px</title><path d="M45.79,73H34.44a.19.19,0,0,0-.19.19,67,67,0,0,1-2.61,15.26h0l.19.19h3.91c.19,0,.19,0,.19-.19a61.31,61.31,0,0,0,2.23-11.91h3.72V88.24a.19.19,0,0,0,.19.19h3.72a.19.19,0,0,0,.19-.19L45.79,73h0m48,0H90.09a.19.19,0,0,0-.19.19V84.71a6.33,6.33,0,0,1-2.61.37c-2.42,0-3-.74-3-4.1V73a.19.19,0,0,0-.19-.19H80.41a.19.19,0,0,0-.19.19v8.56c0,5.4,1.86,7.45,6.33,7.45a20,20,0,0,0,7.26-1.49.19.19,0,0,0,.19-.19V73h-.19M15.45,73H11.73c-.19,0-.19,0-.19.19A105.32,105.32,0,0,1,8.19,83.59L4.28,73.35a.19.19,0,0,0-.19-.19H.19a.19.19,0,0,0-.19.19v.19L5.77,89A24.46,24.46,0,0,1,4.1,92.15,20.31,20.31,0,0,1,3,94.2V94l.19.19H7.45V94c.74-1.49,1.49-3.16,2.42-5.21A164.88,164.88,0,0,0,15.45,73h0m13.4,11.73h-.19a22.34,22.34,0,0,1-3.72.56c-2.61,0-3.72-.74-3.72-4.65,0-3.16.37-4.65,3.72-4.65a23.75,23.75,0,0,1,3.16.37c.19,0,.19,0,.37-.19l1.49-3V73l-.19-.19A21.8,21.8,0,0,0,24.94,72c-5.4,0-7.82,2.61-7.82,8.19,0,6,2.42,8.38,7.82,8.38a15.36,15.36,0,0,0,5.21-.74.19.19,0,0,0,.19-.19l-1.49-3M64,73H60.31c-.19,0-.19,0-.19.19A90.58,90.58,0,0,1,56.77,83.4L53,73.17a.19.19,0,0,0-.19-.19h-4.1a.19.19,0,0,0-.19.19v.19L54.35,88.8a14.11,14.11,0,0,1-1.68,3,20.31,20.31,0,0,1-1.12,2V94l.19.19H56c.19,0,.19,0,.19-.19.74-1.49,1.49-3.16,2.42-5.21A145.19,145.19,0,0,0,64,73h0m13.77,0H67a.19.19,0,0,0-.19.19V88.43h3.91a.19.19,0,0,0,.19-.19V76.52h5.77c.19,0,.19,0,.19-.19.37-.93.93-2,1.49-3.16V73h-.56" style="fill:#ef3e58"/><path d="M19.73,49.34c-5.4,0-7.45,2.23-7.45,8.19s2,8.19,7.45,8.19,7.45-2.42,7.45-8.19-2-8.19-7.45-8.19m0,13c-2.42,0-3.16-.74-3.16-4.65,0-4.47.74-4.84,3.16-4.84s3.16.37,3.16,4.84c.19,4.1-.74,4.65-3.16,4.65m22.34-.56h0l-.19-.19a22.34,22.34,0,0,1-3.72.56c-2.42,0-3.72-.74-3.72-4.65,0-3.16.37-4.65,3.72-4.65a23.75,23.75,0,0,1,3.16.37c.19,0,.19,0,.19-.19l1.49-3V49.9l-.19-.19A21.8,21.8,0,0,0,38,49c-5.4,0-7.82,2.61-7.82,8.19s2.42,8.38,7.82,8.38a13.22,13.22,0,0,0,5.4-.93.19.19,0,0,0,.19-.19l-1.49-2.61m-30.9-12.1H.19A.19.19,0,0,0,0,49.9V65.16a.19.19,0,0,0,.19.19H3.91a.19.19,0,0,0,.19-.19V53.44H9.87c.19,0,.19,0,.19-.19a15.8,15.8,0,0,1,1.49-3.16l-.37-.37h0" style="fill:#0f67b1"/><g id="Bounding_Boxes" data-name="Bounding Boxes"><path d="M0,0H94V94H0Z" style="fill:none"/></g></svg>