<?xml version="1.0" encoding="utf-8"?>
<!-- Generator: Adobe Illustrator 21.1.0, SVG Export Plug-In . SVG Version: 6.00 Build 0)  -->
<svg version="1.1" id="Слой_1" xmlns="http://www.w3.org/2000/svg" xmlns:xlink="http://www.w3.org/1999/xlink" x="0px" y="0px"
	 viewBox="0 0 24 24" style="enable-background:new 0 0 24 24;" xml:space="preserve">
<path d="M23.6,14.9l-0.2-0.5l0.2-1c0-0.4,0.1-0.8,0.1-1.2c0-6.3-5.1-11.3-11.5-11.3c-0.3,0-0.7,0-1,0l-0.8,0.1L9.7,0.6
	C8.9,0.2,7.9,0,6.9,0C3.1,0,0,3,0,6.8c0,0.9,0.2,1.8,0.5,2.7L0.9,10L0.7,11c0,0.4-0.1,0.8-0.1,1.2c0,6.3,5.1,11.3,11.5,11.3
	c0.4,0,0.7,0,1.1,0l0.9-0.1l0.6,0.3c0.8,0.3,1.6,0.5,2.5,0.5c3.8,0,6.9-3,6.9-6.8C24,16.4,23.9,15.6,23.6,14.9z M18,17.4
	c-0.5,0.8-1.3,1.4-2.2,1.8c-0.9,0.4-2,0.6-3.3,0.6c-1.5,0-2.7-0.3-3.8-0.9C8,18.5,7.4,18,7,17.3c-0.5-0.7-0.7-1.4-0.7-2.2
	c0-0.5,0.2-1,0.6-1.4c0.4-0.4,0.9-0.6,1.4-0.6c0.5,0,0.9,0.2,1.2,0.5c0.3,0.3,0.5,0.7,0.7,1.1c0.2,0.4,0.3,0.7,0.5,1
	c0.1,0.2,0.3,0.4,0.6,0.5c0.3,0.1,0.6,0.2,1.2,0.2c0.7,0,1.3-0.2,1.7-0.4c0.4-0.3,0.5-0.6,0.5-0.9c0-0.3-0.1-0.5-0.2-0.6
	c-0.2-0.2-0.5-0.4-0.8-0.5c-0.4-0.1-1-0.3-1.7-0.5c-1-0.2-1.9-0.5-2.7-0.9c-0.8-0.4-1.4-0.9-1.9-1.5c-0.5-0.7-0.7-1.5-0.7-2.4
	c0-0.9,0.3-1.7,0.8-2.4c0.5-0.7,1.2-1.2,2.2-1.6l0.7-0.2c0.7-0.2,1.5-0.3,2.4-0.3c0.9,0,1.7,0.1,2.5,0.4c0.7,0.2,1.3,0.5,1.8,1
	c0.5,0.4,0.8,0.8,1.1,1.3c0.2,0.5,0.4,0.9,0.4,1.4c0,0.5-0.2,1-0.5,1.4c-0.4,0.4-0.8,0.6-1.4,0.6c-0.5,0-0.9-0.1-1.2-0.4
	c-0.2-0.2-0.5-0.6-0.7-1c-0.2-0.5-0.5-0.8-0.7-1c-0.2-0.2-0.6-0.3-1.3-0.3c-0.6,0-1.1,0.1-1.4,0.4c-0.3,0.2-0.4,0.4-0.4,0.6
	c0,0.1,0,0.2,0.1,0.3C10.7,8.9,10.8,9,11,9.1c0.2,0.1,0.5,0.2,0.7,0.3C12,9.5,12.4,9.6,13,9.7c0.8,0.2,1.5,0.4,2.2,0.6
	c0.7,0.2,1.3,0.5,1.8,0.9c0.5,0.4,1,0.9,1.3,1.4c0.3,0.6,0.5,1.3,0.5,2.1C18.8,15.7,18.5,16.6,18,17.4z"/>
</svg>
