<?xml version="1.0" encoding="utf-8"?>
<!-- Generator: Adobe Illustrator 21.1.0, SVG Export Plug-In . SVG Version: 6.00 Build 0)  -->
<svg version="1.1" id="Слой_1" xmlns="http://www.w3.org/2000/svg" xmlns:xlink="http://www.w3.org/1999/xlink" x="0px" y="0px"
	 viewBox="0 0 4175 1186" style="enable-background:new 0 0 4175 1186;" xml:space="preserve">
<style type="text/css">
	.landing-public-main.st0{fill:#292929;}
	.landing-public-main.st1{fill:#FECC00;}
</style>
<g>
	<rect x="516" y="155.1" transform="matrix(0.7071 -0.7071 0.7071 0.7071 62.5658 557.2929)" class="landing-public-main st0" width="376" height="96"/>
	
		<rect x="318" y="155.1" transform="matrix(-0.7071 -0.7071 0.7071 -0.7071 720.1752 704.5519)" class="landing-public-main st0" width="376" height="96"/>
</g>
<g>
	
		<rect x="574.8" y="946.2" transform="matrix(-0.1564 0.9877 -0.9877 -0.1564 1864.1039 396.2934)" class="landing-public-main st0" width="376" height="96"/>
	
		<rect x="735" y="829.8" transform="matrix(0.9877 0.1564 -0.1564 0.9877 148.6847 -133.581)" class="landing-public-main st0" width="376" height="96"/>
</g>
<g>
	
		<rect x="99" y="829.8" transform="matrix(-0.9877 0.1564 -0.1564 -0.9877 707.7958 1699.9327)" class="landing-public-main st0" width="376" height="96"/>
	
		<rect x="259.2" y="946.2" transform="matrix(0.1564 0.9877 -0.9877 0.1564 1359.1808 396.9923)" class="landing-public-main st0" width="376" height="96"/>
</g>
<g>
	<rect x="832.3" y="529.7" transform="matrix(0.891 0.454 -0.454 0.891 373.495 -400.2369)" class="landing-public-main st1" width="376" height="96"/>
	<rect x="771.1" y="341.4" transform="matrix(0.454 -0.891 0.891 0.454 176.6931 1067.2195)" class="landing-public-main st1" width="376" height="96"/>
</g>
<g>
	<rect x="61.9" y="341.4" transform="matrix(-0.454 -0.891 0.891 -0.454 16.3305 788.89)" class="landing-public-main st0" width="376" height="96"/>
	<rect x="0.7" y="529.7" transform="matrix(-0.891 0.454 -0.454 -0.891 619.1204 1006.8442)" class="landing-public-main st0" width="376" height="96"/>
</g>
<path class="landing-public-main st0" d="M1515.1,235.3h-47.9l-11.9,46.4h-36.3L1478,77.3h28.7l59.2,204.5h-38.3L1515.1,235.3z M1475.1,205.8h33.6
	l-11.6-47.3l-4.6-31.9h-1.2l-4.9,32.2L1475.1,205.8z"/>
<path class="landing-public-main st0" d="M1692.3,112.4h-62.9v169.4h-36.5v-203h99.5V112.4z"/>
<path class="landing-public-main st0" d="M1717.8,78.7h101.5v33.6h-65v49.9h58.9v33.6h-58.9v52.2h66.1v33.6h-102.7V78.7z"/>
<path class="landing-public-main st0" d="M1949,195.9h-55.4v85.8H1857v-203h36.5v83.5h55.4V78.7h36.5v203H1949V195.9z"/>
<path class="landing-public-main st0" d="M2296.9,273.6c-5,4.3-11.7,7.3-20.2,9.3c-8.4,1.9-16.8,2.9-25.1,2.9c-10.4,0-20.2-1.8-29.1-5.4
	s-16.9-9.5-23.6-17.8c-6.8-8.3-12.1-19.2-16-32.8c-3.9-13.5-5.8-30.2-5.8-49.9c0-20.5,2.2-37.5,6.5-51c4.4-13.5,10.1-24.3,17.1-32.3
	c7.1-8,15.1-13.7,24.2-17c9.1-3.3,18.3-4.9,27.5-4.9c9.5,0,17.7,0.8,24.8,2.3c7.1,1.5,12.8,3.3,17.3,5.2l-7.3,32.2
	c-3.7-1.9-8-3.4-12.9-4.5c-4.9-1.1-10.8-1.6-17.5-1.6c-13.3,0-23.6,5.8-30.7,17.4c-7.2,11.6-10.7,29.8-10.7,54.5
	c0,10.6,0.8,20.3,2.5,29.1c1.6,8.8,4.3,16.4,7.8,22.8c3.6,6.4,8.1,11.3,13.6,14.8s12.1,5.2,19.9,5.2c6.8,0,12.6-0.9,17.4-2.8
	c4.8-1.8,9.2-4,13-6.5L2296.9,273.6z"/>
<path class="landing-public-main st0" d="M2449.2,112.4h-48.1v169.4h-36.5V112.4h-48.1V78.7h132.8V112.4z"/>
<path class="landing-public-main st0" d="M2153.9,112.4h-48.1v169.4h-36.5V112.4h-48.1V78.7h132.8V112.4z"/>
<path class="landing-public-main st0" d="M2595.1,125.7c0,5-0.5,10-1.6,14.9c-1.1,4.9-2.8,9.6-5.1,13.9s-5.4,8.2-9.1,11.5c-3.8,3.3-8.3,5.8-13.5,7.5v1.7
	c4.6,1.2,9,2.9,13.2,5.2c4.2,2.3,7.8,5.5,10.9,9.4c3.1,4,5.6,8.8,7.4,14.5c1.8,5.7,2.8,12.4,2.8,20.2c0,10.4-1.8,19.5-5.4,27.1
	c-3.6,7.6-8.4,13.9-14.5,18.7c-6.1,4.8-13.2,8.4-21.3,10.7c-8.1,2.3-16.7,3.5-25.8,3.5c-2.7,0-6.2,0-10.4,0c-4.3,0-8.8-0.1-13.8-0.4
	c-4.9-0.3-10-0.7-15.2-1.3s-10.1-1.5-14.5-2.6V80.2c6.4-1.2,14.3-2.2,23.6-3c9.4-0.9,18.7-1.3,28-1.3c8.5,0,16.7,0.7,24.5,2
	c7.8,1.4,14.7,3.9,20.6,7.5c5.9,3.7,10.6,8.8,14.1,15.2C2593.3,107.1,2595.1,115.5,2595.1,125.7z M2524,164.9c2.1,0,4.6-0.1,7.4-0.4
	c2.8-0.3,5.1-0.6,6.8-1c5.6-2.1,10.4-5.6,14.4-10.4c4-4.8,5.9-11.1,5.9-18.9c0-5-0.7-9.3-2-12.8c-1.4-3.5-3.2-6.2-5.5-8.3
	c-2.3-2-5.1-3.5-8.3-4.4c-3.2-0.9-6.6-1.3-10.3-1.3c-7.9,0-13.5,0.4-16.8,1.2v56.3H2524z M2533.9,253c8.1,0,14.8-2.6,20-7.8
	c5.2-5.2,7.8-12.9,7.8-22.9c0-6.4-0.9-11.5-2.6-15.2s-4.1-6.7-7-8.7c-2.9-2-6.2-3.3-10-3.9s-7.7-0.9-11.7-0.9h-14.8v57.7
	c1.5,0.6,4.2,1,8,1.3C2527.3,252.9,2530.8,253,2533.9,253z"/>
<path class="landing-public-main st0" d="M2631,180.2c0-34.4,5.9-60.6,17.7-78.6c11.8-18,29.8-27,53.9-27c12.6,0,23.4,2.5,32.5,7.4
	c9.1,4.9,16.5,12,22.3,21.2c5.8,9.2,10.1,20.3,12.9,33.4c2.8,13,4.2,27.6,4.2,43.6c0,34.4-6,60.6-18.1,78.6c-12.1,18-30,27-53.8,27
	c-12.8,0-23.6-2.5-32.6-7.4s-16.4-12-22.2-21.2c-5.8-9.2-10.1-20.3-12.8-33.4C2632.4,210.8,2631,196.3,2631,180.2z M2669.3,180.2
	c0,10.2,0.6,19.8,1.7,28.6c1.2,8.8,3.1,16.4,5.8,22.8c2.7,6.4,6.1,11.4,10.3,15.1c4.2,3.7,9.3,5.5,15.5,5.5
	c11.2,0,19.6-5.7,25.2-17.1c5.6-11.4,8.4-29.7,8.4-54.8c0-9.9-0.6-19.2-1.7-28c-1.2-8.8-3-16.4-5.7-22.9c-2.6-6.5-6-11.6-10.3-15.4
	c-4.3-3.8-9.6-5.7-16-5.7C2680.4,108.3,2669.3,132.3,2669.3,180.2z"/>
<path class="landing-public-main st0" d="M1529,451.6l2.9-28.7h-1.5l-11,30.7l-57.7,106.1H1433v-203h36.5v106.1l-3.2,29.6h1.4l11.6-31.6l57.7-104.1h28.4
	v203H1529V451.6z"/>
<path class="landing-public-main st0" d="M1698.1,473.9h-55.4v85.8h-36.5v-203h36.5v83.5h55.4v-83.5h36.5v203h-36.5V473.9z"/>
<path class="landing-public-main st0" d="M1891.2,403.7c0,5-0.5,10-1.6,14.9c-1.1,4.9-2.8,9.6-5.1,13.9s-5.4,8.2-9.1,11.5c-3.8,3.3-8.3,5.8-13.5,7.5v1.7
	c4.6,1.2,9,2.9,13.2,5.2c4.2,2.3,7.8,5.5,10.9,9.4c3.1,4,5.6,8.8,7.4,14.5c1.8,5.7,2.8,12.4,2.8,20.2c0,10.4-1.8,19.5-5.4,27.1
	c-3.6,7.6-8.4,13.9-14.5,18.7c-6.1,4.8-13.2,8.4-21.3,10.7s-16.7,3.5-25.8,3.5c-2.7,0-6.2,0-10.4,0c-4.3,0-8.8-0.1-13.8-0.4
	c-4.9-0.3-10-0.7-15.2-1.3s-10.1-1.5-14.5-2.6V358.2c6.4-1.2,14.3-2.2,23.6-3c9.4-0.9,18.7-1.3,28-1.3c8.5,0,16.7,0.7,24.5,2
	c7.8,1.4,14.7,3.9,20.6,7.5c5.9,3.7,10.6,8.8,14.1,15.2C1889.5,385.1,1891.2,393.5,1891.2,403.7z M1820.2,442.9
	c2.1,0,4.6-0.1,7.4-0.4c2.8-0.3,5.1-0.6,6.8-1c5.6-2.1,10.4-5.6,14.4-10.4c4-4.8,5.9-11.1,5.9-18.9c0-5-0.7-9.3-2-12.8
	c-1.4-3.5-3.2-6.2-5.5-8.3c-2.3-2-5.1-3.5-8.3-4.4c-3.2-0.9-6.6-1.3-10.3-1.3c-7.9,0-13.5,0.4-16.8,1.2v56.3H1820.2z M1830.1,531
	c8.1,0,14.8-2.6,20-7.8c5.2-5.2,7.8-12.9,7.8-22.9c0-6.4-0.9-11.5-2.6-15.2s-4.1-6.7-7-8.7c-2.9-2-6.2-3.3-10-3.9s-7.7-0.9-11.7-0.9
	h-14.8v57.7c1.5,0.6,4.2,1,8,1.3C1823.5,530.9,1827,531,1830.1,531z"/>
<path class="landing-public-main st0" d="M1931.8,356.7h101.5v33.6h-65v49.9h58.9v33.6h-58.9v52.2h66.1v33.6h-102.7V356.7z"/>
<path class="landing-public-main st0" d="M2186.2,551.6c-5,4.3-11.7,7.3-20.2,9.3c-8.4,1.9-16.8,2.9-25.1,2.9c-10.4,0-20.2-1.8-29.1-5.4
	c-9-3.6-16.9-9.5-23.6-17.8c-6.8-8.3-12.1-19.2-16-32.8c-3.9-13.5-5.8-30.2-5.8-49.9c0-20.5,2.2-37.5,6.5-51
	c4.4-13.5,10.1-24.3,17.1-32.3c7.1-8,15.1-13.7,24.2-17c9.1-3.3,18.3-4.9,27.5-4.9c9.5,0,17.7,0.8,24.8,2.3
	c7.1,1.5,12.8,3.3,17.3,5.2l-7.3,32.2c-3.7-1.9-8-3.4-12.9-4.5c-4.9-1.1-10.8-1.6-17.5-1.6c-13.3,0-23.6,5.8-30.7,17.4
	c-7.2,11.6-10.7,29.8-10.7,54.5c0,10.6,0.8,20.3,2.5,29.1c1.6,8.8,4.3,16.4,7.8,22.8c3.6,6.4,8.1,11.3,13.6,14.8s12.1,5.2,19.9,5.2
	c6.8,0,12.6-0.9,17.4-2.8c4.8-1.8,9.2-4,13-6.5L2186.2,551.6z"/>
<path class="landing-public-main st0" d="M2338.4,390.4h-48.1v169.4h-36.5V390.4h-48.1v-33.6h132.8V390.4z"/>
<path class="landing-public-main st0" d="M2464.3,451.6l2.9-28.7h-1.5l-11,30.7L2397,559.7h-28.7v-203h36.5v106.1l-3.2,29.6h1.4l11.6-31.6l57.7-104.1
	h28.4v203h-36.5V451.6z"/>
<path class="landing-public-main st0" d="M2687.9,596h-25.8l-3.8-36.3h-116.9v-203h36.5v169.4h52.2V356.7h36.5v169.4h21.2V596z"/>
<path class="landing-public-main st0" d="M2815.2,451.6l2.9-28.7h-1.5l-11,30.7l-57.7,106.1h-28.7v-203h36.5v106.1l-3.2,29.6h1.4l11.6-31.6l57.7-104.1
	h28.4v203h-36.5V451.6z"/>
<path class="landing-public-main st0" d="M2988.3,451.6l2.9-28.7h-1.5l-11,30.7L2921,559.7h-28.7v-203h36.5v106.1l-3.2,29.6h1.4l11.6-31.6l57.7-104.1
	h28.4v203h-36.5V451.6z M2946.5,306.3c1.2,11.8,6.6,17.7,16.2,17.7c9.7,0,15.1-5.8,16.2-17.4l29.6,4.4c-1.5,12.6-6.3,21.7-14.2,27.3
	c-7.9,5.6-18.6,8.4-31.9,8.4c-6.8,0-13-0.6-18.6-1.7c-5.6-1.2-10.5-3.1-14.8-5.8c-4.3-2.7-7.7-6.3-10.4-10.7
	c-2.7-4.4-4.5-10.1-5.2-16.8L2946.5,306.3z"/>
<path class="landing-public-main st0" d="M1529,729.6l2.9-28.7h-1.5l-11,30.7l-57.7,106.1H1433v-203h36.5v106.1l-3.2,29.6h1.4l11.6-31.6l57.7-104.1h28.4
	v203H1529V729.6z"/>
<path class="landing-public-main st0" d="M1680.1,636.8c7-1.5,14.6-2.8,22.9-3.6c8.3-0.9,16.6-1.3,24.9-1.3c8.9,0,17.6,0.8,26.2,2.5
	c8.6,1.6,16.3,4.9,23.1,9.7c6.8,4.8,12.3,11.6,16.5,20.4c4.3,8.8,6.4,20.3,6.4,34.4c0,12.8-1.8,23.6-5.4,32.5
	c-3.6,8.9-8.4,16.1-14.4,21.8c-6,5.6-12.9,9.7-20.7,12.2c-7.8,2.5-15.9,3.8-24.2,3.8c-0.8,0-2,0-3.8,0s-3.6,0-5.5-0.1
	c-1.9-0.1-3.8-0.2-5.7-0.4c-1.8-0.2-3.1-0.4-3.9-0.6v69.9h-36.5V636.8z M1716.7,735.1c1.2,0.4,3.3,0.7,6.5,1
	c3.2,0.3,5.4,0.4,6.5,0.4c4.3,0,8.3-0.6,12.2-1.7c3.9-1.2,7.3-3.1,10.3-5.9c3-2.8,5.4-6.7,7.1-11.6c1.7-4.9,2.6-11.2,2.6-18.7
	c0-6.4-0.8-11.8-2.5-16.2c-1.6-4.4-3.9-8-6.7-10.6c-2.8-2.6-6-4.5-9.7-5.7c-3.7-1.2-7.5-1.7-11.6-1.7c-6,0-10.9,0.5-14.8,1.5V735.1z
	"/>
<path class="landing-public-main st0" d="M1896.2,791.3h-47.9l-11.9,46.4h-36.3l58.9-204.5h28.7l59.2,204.5h-38.3L1896.2,791.3z M1856.2,761.8h33.6
	l-11.6-47.3l-4.6-31.9h-1.2l-4.9,32.2L1856.2,761.8z"/>
<path class="landing-public-main st0" d="M1989.3,747v-29.6h7c2.9,0,6.5-0.1,10.7-0.3c4.3-0.2,7.6-0.8,10.1-1.7c5.2-1.5,9.7-4.4,13.3-8.7
	c3.7-4.3,5.5-9.8,5.5-16.5c0-9.5-2.3-16-6.8-19.7c-4.5-3.7-10.9-5.5-19-5.5c-6.6,0-12.7,1-18.4,3c-5.7,2-10.2,4.1-13.5,6.2
	l-9.3-31.6c1.9-1.2,4.6-2.4,8.1-3.8c3.5-1.3,7.4-2.6,11.7-3.8c4.3-1.2,9-2.1,13.9-2.8c4.9-0.7,9.9-1,14.9-1c7.3,0,14.5,0.7,21.3,2.2
	c6.9,1.4,12.9,4.1,18.1,7.8c5.2,3.8,9.4,8.9,12.5,15.5c3.1,6.6,4.6,15,4.6,25.2c0,9.9-2.1,19-6.2,27.6c-4.2,8.5-10.9,14.8-20.2,18.8
	v1.7c10.1,2.7,17.8,8.1,23.3,16.2c5.5,8.1,8.3,19.1,8.3,33.1c0,11-1.8,20.5-5.4,28.4c-3.6,7.9-8.4,14.4-14.5,19.4
	c-6.1,5-13.1,8.7-21,11c-7.9,2.3-16.1,3.5-24.6,3.5c-10.4,0-20-0.9-28.7-2.8c-8.7-1.8-15.7-4.3-20.9-7.4l9.6-32.5
	c3.7,2.1,8.7,4.2,15.2,6.1c6.5,1.9,14.1,2.9,22.8,2.9c7.9,0,14.8-2.6,20.6-7.7c5.8-5.1,8.7-13.2,8.7-24.2c0-9.5-2.7-16.6-8-21.3
	c-5.3-4.7-14.6-7.3-28-7.7c-2.1,0-3.6,0-4.4-0.1c-0.8-0.1-2.4-0.1-4.9-0.1H1989.3z"/>
<path class="landing-public-main st0" d="M2230.5,681.7c0,5-0.5,10-1.6,14.9c-1.1,4.9-2.8,9.6-5.1,13.9s-5.4,8.2-9.1,11.5c-3.8,3.3-8.3,5.8-13.5,7.5v1.7
	c4.6,1.2,9,2.9,13.2,5.2c4.2,2.3,7.8,5.5,10.9,9.4c3.1,4,5.6,8.8,7.4,14.5c1.8,5.7,2.8,12.4,2.8,20.2c0,10.4-1.8,19.5-5.4,27.1
	c-3.6,7.6-8.4,13.9-14.5,18.7c-6.1,4.8-13.2,8.4-21.3,10.7s-16.7,3.5-25.8,3.5c-2.7,0-6.2,0-10.4,0c-4.3,0-8.8-0.1-13.8-0.4
	c-4.9-0.3-10-0.7-15.2-1.3s-10.1-1.5-14.5-2.6V636.2c6.4-1.2,14.3-2.2,23.6-3c9.4-0.9,18.7-1.3,28-1.3c8.5,0,16.7,0.7,24.5,2
	c7.8,1.4,14.7,3.9,20.6,7.5c5.9,3.7,10.6,8.8,14.1,15.2C2228.8,663.1,2230.5,671.5,2230.5,681.7z M2159.5,720.9
	c2.1,0,4.6-0.1,7.4-0.4c2.8-0.3,5.1-0.6,6.8-1c5.6-2.1,10.4-5.6,14.4-10.4c4-4.8,5.9-11.1,5.9-18.9c0-5-0.7-9.3-2-12.8
	c-1.4-3.5-3.2-6.2-5.5-8.3c-2.3-2-5.1-3.5-8.3-4.4c-3.2-0.9-6.6-1.3-10.3-1.3c-7.9,0-13.5,0.4-16.8,1.2v56.3H2159.5z M2169.4,809
	c8.1,0,14.8-2.6,20-7.8s7.8-12.9,7.8-22.9c0-6.4-0.9-11.5-2.6-15.2c-1.7-3.8-4.1-6.7-7-8.7c-2.9-2-6.2-3.3-10-3.9s-7.7-0.9-11.7-0.9
	h-14.8v57.7c1.5,0.6,4.2,1,8,1.3C2162.8,808.9,2166.3,809,2169.4,809z"/>
<path class="landing-public-main st0" d="M2367.1,729.6l2.9-28.7h-1.5l-11,30.7l-57.7,106.1h-28.7v-203h36.5v106.1l-3.2,29.6h1.4l11.6-31.6l57.7-104.1
	h28.4v203h-36.5V729.6z"/>
<path class="landing-public-main st0" d="M2566.4,668.4h-48.1v169.4h-36.5V668.4h-48.1v-33.6h132.8V668.4z"/>
<path class="landing-public-main st0" d="M2692.2,729.6l2.9-28.7h-1.5l-11,30.7l-57.7,106.1h-28.7v-203h36.5v106.1l-3.2,29.6h1.4l11.6-31.6l57.7-104.1
	h28.4v203h-36.5V729.6z"/>
<path class="landing-public-main st0" d="M2884.2,837.7h-36.5v-80.9l-15.7,5.5l-32.2,75.4h-42l33.1-69l14.5-11.6c-10.2-2.9-18.8-9.2-25.5-19
	c-6.8-9.8-10.2-23.4-10.2-41c0-12.4,1.7-22.7,5.2-31c3.5-8.3,8.4-15,14.8-20c6.4-5,14-8.6,22.9-10.9c8.9-2.2,18.7-3.3,29.3-3.3
	c2.5,0,5.7,0.1,9.4,0.3c3.8,0.2,7.6,0.5,11.5,0.9c3.9,0.4,7.7,0.9,11.5,1.6c3.8,0.7,7.1,1.4,10,2.2V837.7z M2847.7,666.9
	c-1.7-0.6-3.5-1-5.2-1.2c-1.7-0.2-3.9-0.3-6.4-0.3c-3.9,0-7.5,0.5-11,1.6c-3.5,1.1-6.5,2.9-9,5.5c-2.5,2.6-4.5,6-5.9,10.3
	c-1.5,4.3-2.2,9.6-2.2,16c0,12.2,2.7,20.9,8,26.2c5.3,5.3,12.2,8,20.7,8h11V666.9z"/>
<g>
	<path class="landing-public-main st0" d="M1463.9,1017.9l-37-75.7h19.8l24,52.1l4.4,13l4.4-13l25.3-52.1h18.3l-38.3,74.1l39.6,79.9h-18.9l-26.6-55.2
		l-5.1-13.6l-4.6,13.6l-27.3,55.2h-18.9L1463.9,1017.9z"/>
	<path class="landing-public-main st0" d="M1610.6,1053.1h-43.4l-12.3,43.1h-16.3l46.4-156.4h9l46.4,156.4h-17.4L1610.6,1053.1z M1571.6,1038.8h35.1
		l-13.4-47.8l-4.1-23.2h-0.5l-4.3,23.7L1571.6,1038.8z"/>
	<path class="landing-public-main st0" d="M1666.7,942.2h68.9v15.2h-52.4v47.3c2.1-0.4,4.6-0.9,7.6-1.3c3-0.4,5.9-0.7,8.7-0.7c6.2,0,12,0.7,17.4,2.1
		c5.4,1.4,10.2,3.8,14.2,7.2c4,3.4,7.2,8,9.6,13.8c2.3,5.8,3.5,13.1,3.5,21.9c0,8.8-1.1,16.4-3.4,22.8c-2.3,6.4-5.4,11.6-9.5,15.6
		c-4,4-8.8,7-14.4,9c-5.6,2-11.7,3-18.5,3c-2.1,0-4.4,0-7.1-0.1c-2.7-0.1-5.5-0.2-8.4-0.4c-2.9-0.2-5.7-0.5-8.6-1
		c-2.9-0.4-5.4-1-7.6-1.5V942.2z M1683.2,1081.5c1.6,0.6,4.1,1,7.4,1.1c3.3,0.1,6.4,0.2,9.3,0.2c7.9,0,14.4-2.6,19.4-7.7
		c5-5.1,7.5-13.3,7.5-24.4c0-7-0.8-12.7-2.3-17c-1.5-4.3-3.6-7.7-6.3-10c-2.6-2.3-5.8-3.9-9.3-4.6c-3.6-0.7-7.4-1.1-11.5-1.1
		c-1,0-2.2,0.1-3.5,0.2c-1.3,0.1-2.7,0.3-4.1,0.4c-1.4,0.1-2.7,0.4-3.9,0.7c-1.2,0.3-2.1,0.5-2.6,0.7V1081.5z"/>
	<path class="landing-public-main st0" d="M1834.6,1053.1h-43.4l-12.3,43.1h-16.3l46.4-156.4h9l46.4,156.4h-17.4L1834.6,1053.1z M1795.6,1038.8h35.1
		l-13.4-47.8l-4.1-23.2h-0.5l-4.3,23.7L1795.6,1038.8z"/>
	<path class="landing-public-main st0" d="M1890.6,943.8c4.7-1.3,9.7-2.2,15-2.6c5.3-0.4,10.5-0.7,15.6-0.7c5.9,0,11.7,0.7,17.4,2s10.9,3.7,15.5,7.3
		c4.6,3.5,8.4,8.4,11.2,14.5c2.9,6.2,4.3,14,4.3,23.5c0,9.2-1.4,17.1-4.1,23.5c-2.7,6.5-6.3,11.7-10.8,15.7c-4.5,4-9.6,7-15.4,8.8
		c-5.8,1.8-11.8,2.8-17.9,2.8c-0.6,0-1.5,0-2.9,0c-1.3,0-2.7,0-4.2-0.1c-1.5-0.1-2.9-0.2-4.3-0.3c-1.4-0.1-2.4-0.3-3-0.4v58.5h-16.5
		V943.8z M1922.1,955.6c-2.9,0-5.8,0.1-8.5,0.3c-2.7,0.2-4.9,0.5-6.5,1v65.6c0.6,0.3,1.5,0.5,2.8,0.6c1.2,0.1,2.5,0.1,3.8,0.2
		c1.3,0.1,2.6,0.1,3.9,0.1c1.2,0,2.2,0,2.8,0c4.1,0,8.1-0.5,11.9-1.5c3.8-1,7.2-2.9,10.1-5.6c2.9-2.7,5.3-6.4,7.1-11
		c1.8-4.6,2.8-10.5,2.8-17.5c0-6.2-0.8-11.3-2.5-15.4c-1.7-4.1-3.9-7.4-6.6-9.9c-2.7-2.5-5.9-4.3-9.6-5.3
		C1929.9,956.2,1926.1,955.6,1922.1,955.6z"/>
	<path class="landing-public-main st0" d="M1993.4,1019.2c0-26.1,4.2-45.9,12.5-59.4c8.4-13.5,21.1-20.2,38.3-20.2c9.2,0,17.1,1.9,23.5,5.6
		c6.5,3.7,11.7,9.1,15.7,16c4,6.9,7,15.3,8.9,25.1c1.9,9.8,2.9,20.8,2.9,33c0,26.1-4.2,45.9-12.7,59.4
		c-8.4,13.5-21.2,20.2-38.4,20.2c-9.1,0-16.9-1.9-23.3-5.6c-6.5-3.7-11.7-9.1-15.8-16c-4.1-6.9-7.1-15.3-8.9-25.1
		C1994.3,1042.4,1993.4,1031.4,1993.4,1019.2z M2010.8,1019.2c0,8.7,0.6,16.9,1.9,24.6c1.2,7.8,3.2,14.6,5.8,20.5
		c2.6,5.9,6.1,10.6,10.3,14.1c4.3,3.5,9.4,5.3,15.4,5.3c11,0,19.4-5.3,25.1-15.8c5.7-10.6,8.6-26.8,8.6-48.6
		c0-8.5-0.6-16.6-1.9-24.4c-1.2-7.8-3.2-14.6-5.8-20.6c-2.6-5.9-6.1-10.7-10.3-14.2c-4.3-3.5-9.5-5.3-15.6-5.3
		c-10.9,0-19.1,5.3-24.9,15.8S2010.8,997.4,2010.8,1019.2z"/>
	<path class="landing-public-main st0" d="M2206.1,977.2c0,3.8-0.4,7.6-1.3,11.4c-0.9,3.8-2.3,7.4-4.2,10.8c-1.9,3.4-4.3,6.4-7.2,9
		c-2.9,2.6-6.3,4.6-10.4,5.9v0.9c3.5,0.7,6.9,1.9,10.1,3.6c3.2,1.7,6.1,4,8.6,7c2.5,3,4.5,6.7,5.9,11c1.5,4.3,2.2,9.5,2.2,15.5
		c0,7.9-1.2,14.8-3.7,20.6c-2.5,5.8-5.9,10.5-10.2,14.2c-4.3,3.7-9.3,6.4-15,8.1c-5.6,1.8-11.6,2.6-17.9,2.6c-2.1,0-4.4,0-7.1,0
		c-2.7,0-5.6-0.1-8.7-0.3c-3.1-0.2-6.1-0.5-9.1-0.9c-3-0.4-5.8-0.9-8.3-1.7V943.5c4.4-0.9,9.6-1.6,15.5-2.2
		c5.9-0.6,12.4-0.9,19.3-0.9c5,0,10,0.5,15,1.4c5,1,9.5,2.8,13.4,5.4c4,2.6,7.2,6.3,9.6,11.1
		C2204.9,963.2,2206.1,969.4,2206.1,977.2z M2155.3,1010.6c2.1,0,4.4-0.1,7-0.2c2.6-0.1,4.8-0.4,6.6-0.7c5.4-2.2,10.1-5.8,14-10.7
		c3.9-4.9,5.8-11,5.8-18.2c0-4.8-0.7-8.9-2-12.2c-1.3-3.3-3.1-5.9-5.4-7.8c-2.3-1.9-5-3.3-8-4.1c-3.1-0.8-6.3-1.2-9.7-1.2
		c-3.8,0-7.3,0.1-10.3,0.3s-5.4,0.5-7,0.8v53.9H2155.3z M2164.3,1082.8c4,0,7.6-0.6,11-1.9c3.4-1.2,6.3-3.1,8.9-5.6
		c2.6-2.5,4.6-5.5,6-9.1c1.5-3.6,2.2-7.8,2.2-12.7c0-6-0.9-10.9-2.8-14.6c-1.8-3.7-4.2-6.6-7.2-8.7c-2.9-2.1-6.3-3.4-10-4.2
		c-3.7-0.7-7.6-1.1-11.5-1.1h-14.7v56.3c0.9,0.3,2,0.5,3.4,0.7c1.4,0.1,2.9,0.3,4.6,0.4c1.7,0.1,3.4,0.3,5.2,0.3
		C2161.2,1082.8,2162.9,1082.8,2164.3,1082.8z"/>
	<path class="landing-public-main st0" d="M2324.9,1090.3c-3.7,3.1-8.3,5.3-13.9,6.6c-5.6,1.3-11.4,2-17.6,2c-7.8,0-15-1.5-21.6-4.4s-12.3-7.6-17-14
		c-4.8-6.4-8.5-14.6-11.1-24.8c-2.6-10.1-4-22.3-4-36.5c0-14.7,1.5-27.1,4.5-37.2c3-10.1,7-18.3,12-24.6c5-6.3,10.7-10.9,17.3-13.6
		c6.5-2.8,13.2-4.2,20.1-4.2c7,0,12.9,0.5,17.5,1.5c4.6,1,8.6,2.3,12,3.7l-4,15c-2.9-1.6-6.4-2.9-10.3-3.7c-4-0.9-8.5-1.3-13.6-1.3
		c-5.1,0-10,1.1-14.5,3.4c-4.5,2.3-8.6,5.9-12.1,11c-3.5,5.1-6.3,11.7-8.4,19.9c-2.1,8.2-3.1,18.3-3.1,30.1c0,21.4,3.7,37.5,11,48.3
		c7.3,10.8,17.1,16.2,29.3,16.2c5,0,9.5-0.7,13.4-2.1c4-1.4,7.3-3,10.1-5L2324.9,1090.3z"/>
	<path class="landing-public-main st0" d="M2380.6,1024.9h-7.9v71.3h-16.5v-154h16.5v71.7l7.7-3.1l40-68.6h18.9l-40.3,66.4l-7.7,7l9,8.8l44.7,71.7h-20.9
		L2380.6,1024.9z"/>
	<path class="landing-public-main st0" d="M2467.5,1019.2c0-26.1,4.2-45.9,12.5-59.4c8.4-13.5,21.1-20.2,38.3-20.2c9.2,0,17.1,1.9,23.5,5.6
		c6.5,3.7,11.7,9.1,15.7,16c4,6.9,7,15.3,8.9,25.1c1.9,9.8,2.9,20.8,2.9,33c0,26.1-4.2,45.9-12.7,59.4
		c-8.4,13.5-21.2,20.2-38.4,20.2c-9.1,0-16.9-1.9-23.3-5.6c-6.5-3.7-11.7-9.1-15.8-16c-4.1-6.9-7.1-15.3-8.9-25.1
		C2468.4,1042.4,2467.5,1031.4,2467.5,1019.2z M2484.9,1019.2c0,8.7,0.6,16.9,1.9,24.6c1.2,7.8,3.2,14.6,5.8,20.5
		c2.6,5.9,6.1,10.6,10.3,14.1c4.3,3.5,9.4,5.3,15.4,5.3c11,0,19.4-5.3,25.1-15.8c5.7-10.6,8.6-26.8,8.6-48.6
		c0-8.5-0.6-16.6-1.9-24.4c-1.2-7.8-3.2-14.6-5.8-20.6c-2.6-5.9-6.1-10.7-10.3-14.2c-4.3-3.5-9.5-5.3-15.6-5.3
		c-10.9,0-19.1,5.3-24.9,15.8S2484.9,997.4,2484.9,1019.2z"/>
	<path class="landing-public-main st0" d="M2671.2,957.4h-50.8v138.8h-16.5v-154h67.3V957.4z"/>
	<path class="landing-public-main st0" d="M2684.8,1019.2c0-26.1,4.2-45.9,12.5-59.4c8.4-13.5,21.1-20.2,38.3-20.2c9.2,0,17.1,1.9,23.5,5.6
		c6.5,3.7,11.7,9.1,15.7,16c4,6.9,7,15.3,8.9,25.1c1.9,9.8,2.9,20.8,2.9,33c0,26.1-4.2,45.9-12.7,59.4
		c-8.4,13.5-21.2,20.2-38.4,20.2c-9.1,0-16.9-1.9-23.3-5.6c-6.5-3.7-11.7-9.1-15.8-16c-4.1-6.9-7.1-15.3-8.9-25.1
		C2685.8,1042.4,2684.8,1031.4,2684.8,1019.2z M2702.2,1019.2c0,8.7,0.6,16.9,1.9,24.6c1.2,7.8,3.2,14.6,5.8,20.5
		c2.6,5.9,6.1,10.6,10.3,14.1c4.3,3.5,9.4,5.3,15.4,5.3c11,0,19.4-5.3,25.1-15.8c5.7-10.6,8.6-26.8,8.6-48.6
		c0-8.5-0.6-16.6-1.9-24.4c-1.2-7.8-3.2-14.6-5.8-20.6c-2.6-5.9-6.1-10.7-10.3-14.2c-4.3-3.5-9.5-5.3-15.6-5.3
		c-10.9,0-19.1,5.3-24.9,15.8S2702.2,997.4,2702.2,1019.2z"/>
	<path class="landing-public-main st0" d="M2903.3,1024.9h-7.9v71.3h-16.5v-154h16.5v71.7l7.7-3.1l40-68.6h18.9l-40.3,66.4l-7.7,7l9,8.8l44.7,71.7h-20.9
		L2903.3,1024.9z"/>
	<path class="landing-public-main st0" d="M2998.3,943.8c4.7-1.3,9.7-2.2,15-2.6c5.3-0.4,10.5-0.7,15.6-0.7c5.9,0,11.7,0.7,17.4,2s10.9,3.7,15.5,7.3
		c4.6,3.5,8.4,8.4,11.2,14.5c2.9,6.2,4.3,14,4.3,23.5c0,9.2-1.4,17.1-4.1,23.5c-2.7,6.5-6.3,11.7-10.8,15.7c-4.5,4-9.6,7-15.4,8.8
		c-5.8,1.8-11.8,2.8-17.9,2.8c-0.6,0-1.5,0-2.9,0c-1.3,0-2.7,0-4.2-0.1c-1.5-0.1-2.9-0.2-4.3-0.3c-1.4-0.1-2.4-0.3-3-0.4v58.5h-16.5
		V943.8z M3029.8,955.6c-2.9,0-5.8,0.1-8.5,0.3c-2.7,0.2-4.9,0.5-6.5,1v65.6c0.6,0.3,1.5,0.5,2.8,0.6c1.2,0.1,2.5,0.1,3.8,0.2
		c1.3,0.1,2.6,0.1,3.9,0.1c1.2,0,2.2,0,2.8,0c4.1,0,8.1-0.5,11.9-1.5c3.8-1,7.2-2.9,10.1-5.6c2.9-2.7,5.3-6.4,7.1-11
		c1.8-4.6,2.8-10.5,2.8-17.5c0-6.2-0.8-11.3-2.5-15.4c-1.7-4.1-3.9-7.4-6.6-9.9c-2.7-2.5-5.9-4.3-9.6-5.3
		C3037.6,956.2,3033.8,955.6,3029.8,955.6z"/>
	<path class="landing-public-main st0" d="M3155.9,1053.1h-43.4l-12.3,43.1h-16.3l46.4-156.4h9l46.4,156.4h-17.4L3155.9,1053.1z M3116.9,1038.8h35.1
		l-13.4-47.8l-4.1-23.2h-0.5l-4.3,23.7L3116.9,1038.8z"/>
	<path class="landing-public-main st0" d="M3285.2,1096.2h-16.5v-67.5l-17.6,4.6l-29.9,62.9h-18.9l27-55.7l10.5-9.2c-8.5-2.2-15.5-6.9-20.9-14.2
		c-5.4-7.3-8.1-17.3-8.1-30c0-9.1,1.2-16.6,3.7-22.7c2.5-6,5.9-10.8,10.1-14.4c4.3-3.6,9.2-6.1,15-7.5c5.7-1.4,11.8-2.1,18.3-2.1
		c4,0,8.4,0.2,13.3,0.7c4.9,0.4,9.6,1.3,14,2.6V1096.2z M3256.6,955.6c-3.8,0-7.4,0.5-10.8,1.4c-3.4,1-6.4,2.6-9,5.1
		c-2.6,2.4-4.7,5.6-6.3,9.7c-1.5,4-2.3,9.1-2.3,15.3c0,11.3,2.7,19.4,8.1,24.4c5.4,5,12.2,7.5,20.5,7.5h11.9v-62
		c-1.6-0.6-3.4-1-5.3-1.1C3261.5,955.7,3259.3,955.6,3256.6,955.6z"/>
</g>
</svg>
