<svg width="330" height="140" viewBox="0 0 330 140" fill="none" xmlns="http://www.w3.org/2000/svg">
<path d="M76.7173 46.3695C76.434 45.5911 76.8354 44.7303 77.6138 44.447L156.548 15.7173C157.326 15.4339 158.187 15.8353 158.471 16.6138L186.516 93.6686C186.8 94.447 186.398 95.3078 185.62 95.5912L106.686 124.321C105.907 124.604 105.046 124.203 104.763 123.424L76.7173 46.3695Z" fill="#EAF8FD" stroke="white" stroke-width="5"/>
<path fill-rule="evenodd" clip-rule="evenodd" d="M156.377 15.2474L77.4428 43.9771C76.4049 44.3549 75.8697 45.5026 76.2475 46.5406L104.293 123.595C104.671 124.633 105.819 125.168 106.857 124.791L185.791 96.061C186.829 95.6832 187.364 94.5355 186.986 93.4976L158.94 16.4428C158.563 15.4048 157.415 14.8696 156.377 15.2474ZM76.7588 42.0977C74.6829 42.8533 73.6125 45.1487 74.3681 47.2246L102.414 124.279C103.169 126.355 105.465 127.426 107.541 126.67L186.475 97.9404C188.551 97.1848 189.621 94.8894 188.865 92.8135L160.82 15.7587C160.064 13.6828 157.769 12.6125 155.693 13.368L76.7588 42.0977Z" fill="#EEEEEE"/>
<rect x="166.672" y="18.3115" width="90" height="88" rx="3" transform="rotate(10 166.672 18.3115)" fill="white" stroke="#E6E6E6" stroke-width="2"/>
<path d="M177.738 30.4171L240.766 41.5306C242.398 41.8183 243.487 43.3742 243.199 45.0059L234.17 96.2159C233.882 97.8476 232.326 98.9371 230.694 98.6494L167.667 87.5359C166.035 87.2482 164.945 85.6922 165.233 84.0605L174.263 32.8505C174.551 31.2189 176.107 30.1294 177.738 30.4171Z" stroke="#E6E6E6" stroke-width="2"/>
<path d="M231.01 96.8637L167.982 85.7502C167.166 85.6063 166.622 84.8283 166.765 84.0125L167.263 81.1937C167.34 80.7523 167.612 80.3688 168.002 80.1483L185.571 70.2195C186.181 69.8749 186.948 69.9981 187.419 70.5164L193.783 77.5172C195.858 79.7992 199.25 80.3093 201.904 78.7383L217.69 69.3935C218.392 68.9778 219.298 69.1996 219.729 69.8927L233.104 91.4233L235.227 90.104L233.104 91.4233C233.299 91.737 233.371 92.1116 233.307 92.4753L232.748 95.6469C232.604 96.4628 231.826 97.0075 231.01 96.8637Z" fill="#F0FDED" stroke="white" stroke-width="5"/>
<path fill-rule="evenodd" clip-rule="evenodd" d="M167.895 86.2426L230.923 97.3561C232.011 97.5479 233.048 96.8215 233.24 95.7337L233.799 92.5621C233.885 92.0772 233.788 91.5777 233.529 91.1594L235.227 90.104C235.747 90.9406 235.94 91.9395 235.769 92.9094L235.21 96.081C234.826 98.2566 232.751 99.7093 230.576 99.3257L167.548 88.2122C165.373 87.8286 163.92 85.7539 164.303 83.5784L164.8 80.7596C165.008 79.5825 165.731 78.5599 166.772 77.9718L184.341 68.043C185.967 67.1241 188.013 67.4528 189.269 68.8347L195.633 75.8356C196.91 77.2399 198.997 77.5538 200.631 76.587L216.417 67.2421C218.289 66.1338 220.704 66.7253 221.852 68.5735L235.227 90.104L233.529 91.1594L220.153 69.6289C219.579 68.7048 218.372 68.409 217.436 68.9632L201.649 78.3081C199.2 79.7582 196.068 79.2873 194.153 77.1809L187.789 70.1801C187.161 69.4891 186.138 69.3247 185.325 69.7842L167.756 79.713C167.235 80.007 166.874 80.5183 166.77 81.1069L166.273 83.9257C166.081 85.0135 166.808 86.0508 167.895 86.2426Z" fill="#EEEEEE"/>
<circle cx="187.357" cy="47.8521" r="5.5" transform="rotate(10 187.357 47.8521)" fill="#F4F4F4" stroke="#E6E6E6" stroke-width="2"/>
</svg>
