<?xml version="1.0" encoding="utf-8"?>
<!-- Generator: Adobe Illustrator 21.1.0, SVG Export Plug-In . SVG Version: 6.00 Build 0)  -->
<svg version="1.1" id="Слой_1" xmlns="http://www.w3.org/2000/svg" xmlns:xlink="http://www.w3.org/1999/xlink" x="0px" y="0px"
	 viewBox="0 0 24 24" style="enable-background:new 0 0 24 24;" xml:space="preserve">
<style type="text/css">
	.round-subdirectory.st0{fill:none;}
</style>
<g id="Bounding_Boxes">
	<path class="round-subdirectory st0" d="M0,0h24v24H0V0z"/>
</g>
<g id="Rounded">
	<path d="M8.6,5L4,9.6c-0.4,0.4-0.4,1,0,1.4l0,0c0.4,0.4,1,0.4,1.4,0l2.9-2.9v10.2c0,0.5,0.4,1,1,1h10c0.6,0,1-0.5,1-1l0,0
		c0-0.5-0.4-1-1-1h-9V8.1l2.9,2.9c0.4,0.4,1,0.4,1.4,0l0,0c0.4-0.4,0.4-1,0-1.4L10,5C9.6,4.6,9,4.6,8.6,5z"/>
</g>
</svg>
