<svg id="Слой_1" data-name="Слой 1" xmlns="http://www.w3.org/2000/svg" viewBox="0 0 56.71 53.95"><title>smal_air</title><rect x="24.38" y="5.61" width="17.6" height="4.5" transform="translate(4.01 25.74) rotate(-45)" style="fill:#fff"/><rect x="21.62" y="-0.96" width="4.5" height="17.6" transform="translate(1.3 19.15) rotate(-45)" style="fill:#fff"/><rect x="27.1" y="42.67" width="17.6" height="4.5" transform="translate(-14.23 73.33) rotate(-81)" style="fill:#fff"/><rect x="41.12" y="30.67" width="4.5" height="17.6" transform="translate(-2.54 76.11) rotate(-81)" style="fill:#fff"/><rect x="4.82" y="37.28" width="17.6" height="4.5" transform="translate(-6.16 2.59) rotate(-9)" style="fill:#fff"/><rect x="18.83" y="36.13" width="4.5" height="17.6" transform="translate(-6.92 3.82) rotate(-9)" style="fill:#fff"/><rect x="45.74" y="16.58" width="4.5" height="17.6" transform="translate(3.45 56.59) rotate(-63)" style="fill:#fecc00"/><rect x="36.28" y="14.39" width="17.6" height="4.5" transform="translate(9.64 49.22) rotate(-63)" style="fill:#fecc00"/><rect x="9.57" y="7.79" width="4.5" height="17.6" transform="translate(-6.39 7.15) rotate(-27)" style="fill:#fff"/><rect x="0.21" y="23.22" width="17.6" height="4.5" transform="translate(-10.73 6.84) rotate(-27)" style="fill:#fff"/></svg>