<svg width="24" height="24" viewBox="0 0 24 24" fill="none" xmlns="http://www.w3.org/2000/svg">
<path d="M3 5H6C6.55228 5 7 5.44772 7 6C7 6.55228 6.55228 7 6 7H3V5ZM3 15V13H10C10.5523 13 11 13.4477 11 14C11 14.5523 10.5523 15 10 15H3ZM3 9H8C8.55228 9 9 9.44772 9 10C9 10.5523 8.55228 11 8 11H3V9Z" fill="#A7ADB6"/>
<path d="M3 17V19H12C12.5523 19 13 18.5523 13 18C13 17.4477 12.5523 17 12 17H3Z" fill="#A7ADB6"/>
<path fill-rule="evenodd" clip-rule="evenodd" d="M19.7955 19.1705C19.3562 19.6098 18.6438 19.6098 18.2045 19.1705L14.8295 15.7955C14.3902 15.3562 14.3902 14.6438 14.8295 14.2045C15.2688 13.7652 15.9812 13.7652 16.4205 14.2045L17.875 15.659L17.875 6.5C17.875 5.87868 18.3787 5.375 19 5.375C19.6213 5.375 20.125 5.87868 20.125 6.5L20.125 15.659L21.5795 14.2045C22.0188 13.7652 22.7312 13.7652 23.1705 14.2045C23.6098 14.6438 23.6098 15.3562 23.1705 15.7955L19.7955 19.1705Z" fill="#A7ADB6"/>
</svg>
