<svg id="Слой_1" data-name="Слой 1" xmlns="http://www.w3.org/2000/svg" viewBox="0 0 53.77 24"><title>the_white_24</title><path d="M27.89,13.29v4.38l-2,2.87h-.43V13.29a2.29,2.29,0,0,0-2.51-2.51h-.26l-.56.1a4.18,4.18,0,0,0-1.95,1.38v8.21H17.64V2.8L19.71,0h.46V9.79l.13.13a3.64,3.64,0,0,1,2.87-1.38A4.47,4.47,0,0,1,27.89,13.29Z" style="fill:#767f8d"/><polygon points="7.98 12.33 5.5 12.33 4.48 16.05 2.47 8.8 0 8.8 3.23 20.5 5.7 20.5 5.7 20.5 5.7 20.5 7.98 12.33" style="fill:#767f8d"/><polygon points="13.48 8.8 11.47 16.05 10.45 12.33 7.98 12.33 10.25 20.5 10.25 20.5 12.69 20.5 15.96 8.8 13.48 8.8" style="fill:#767f8d"/><path d="M48.66,18.53A3.17,3.17,0,0,1,45.3,15.3h6.53l1.95-2.7a5.36,5.36,0,0,0-5.21-4,5.75,5.75,0,0,0-5.74,6.1,5.8,5.8,0,0,0,5.7,6.1,5.71,5.71,0,0,0,5.11-3l-2.08-1A3,3,0,0,1,48.66,18.53Zm-.13-7.71a2.76,2.76,0,0,1,2.87,2.31h-6A3,3,0,0,1,48.53,10.81Z" style="fill:#767f8d"/><circle cx="31.88" cy="6.33" r="2.51" style="fill:#767f8d"/><path d="M40.29,21.73a1.21,1.21,0,0,1-1-1.22V11h2.51V8.8H39.33v-5h-.46l-2,2.74v4.52H32.64l-2,2.74v6.69H33.1V13.32h3.79v7.19c0,2.24,1.35,3.49,3.82,3.49l1.38-1.91Z" style="fill:#767f8d"/></svg>